<?xml version="1.0" encoding="UTF-8" standalone="no"?>
<!-- Created with Inkscape (http://www.inkscape.org/) -->

<svg
   version="1.1"
   id="svg1"
   width="1000"
   height="666.66669"
   viewBox="0 0 1000 666.66669"
   sodipodi:docname="9090563.svg"
   inkscape:version="1.3 (0e150ed, 2023-07-21)"
   xmlns:inkscape="http://www.inkscape.org/namespaces/inkscape"
   xmlns:sodipodi="http://sodipodi.sourceforge.net/DTD/sodipodi-0.dtd"
   xmlns="http://www.w3.org/2000/svg"
   xmlns:svg="http://www.w3.org/2000/svg">
  <defs
     id="defs1" />
  <sodipodi:namedview
     id="namedview1"
     pagecolor="#ffffff"
     bordercolor="#000000"
     borderopacity="0.25"
     inkscape:showpageshadow="2"
     inkscape:pageopacity="0.0"
     inkscape:pagecheckerboard="0"
     inkscape:deskcolor="#d1d1d1"
     inkscape:zoom="0.35399999"
     inkscape:cx="500.00001"
     inkscape:cy="333.33334"
     inkscape:window-width="1408"
     inkscape:window-height="967"
     inkscape:window-x="0"
     inkscape:window-y="39"
     inkscape:window-maximized="0"
     inkscape:current-layer="g1">
    <inkscape:page
       x="0"
       y="0"
       inkscape:label="1"
       id="page1"
       width="1000"
       height="666.66669"
       margin="0"
       bleed="0" />
  </sodipodi:namedview>
  <g
     id="g1"
     inkscape:groupmode="layer"
     inkscape:label="1">
    <g
       id="group-R5">
      <path
         id="path2"
         d="M 7500,0 H 0 V 5000 H 7500 V 0"
         style="fill:#ffffff;fill-opacity:1;fill-rule:nonzero;stroke:none"
         transform="matrix(0.13333333,0,0,-0.13333333,0,666.66667)" />
      <path
         id="path3"
         d="m 3204.9,4123.27 c -11,38.34 3.35,79.52 23.34,114.03 20.47,35.33 48.84,68.41 87.2,82.38 38.37,13.96 87.73,3.09 107.86,-32.45 14.27,-25.19 11.56,-56.18 8.41,-85 26.65,156.45 147.32,276.33 303.99,301.65 56.06,9.06 123.64,0.05 152.43,-48.89 11.3,-19.22 14.84,-42.15 14.57,-64.45 -0.77,-60.12 -29.03,-119.34 -75.3,-157.74 24.22,61.41 88.13,87.93 152.09,104.3 24.12,6.15 51.43,9.79 72.42,-3.55 22.56,-14.36 30.38,-44.05 29.24,-70.76 -1.05,-24.83 -8.24,-49.36 -20.74,-70.83 13.34,30.47 45.41,43.62 77.11,53.75 40.55,12.97 84.82,22.17 125.29,8.91 40.47,-13.26 73.81,-90.23 62.74,-131.35 H 3204.9"
         style="fill:#dad8ea;fill-opacity:1;fill-rule:nonzero;stroke:none"
         transform="matrix(0.13333333,0,0,-0.13333333,0,666.66667)" />
      <path
         id="path4"
         d="m 4313.45,3035.8 c -11,38.34 3.34,79.53 23.34,114.04 20.46,35.31 48.84,68.41 87.2,82.36 38.36,13.96 87.72,3.08 107.84,-32.42 14.28,-25.22 11.56,-56.21 8.43,-85.02 26.64,156.46 147.31,276.32 303.98,301.66 56.06,9.04 123.62,0.04 152.41,-48.89 11.31,-19.24 14.84,-42.17 14.57,-64.45 -0.74,-60.14 -29.02,-119.36 -75.29,-157.75 24.22,61.42 88.14,87.94 152.1,104.31 24.11,6.15 51.42,9.78 72.41,-3.56 22.58,-14.35 30.39,-44.04 29.25,-70.76 -1.05,-24.82 -8.25,-49.37 -20.75,-70.83 13.34,30.49 45.42,43.63 77.1,53.75 40.57,12.96 84.84,22.18 125.3,8.92 40.47,-13.28 73.83,-90.23 62.74,-131.36 H 4313.45"
         style="fill:#dad8ea;fill-opacity:1;fill-rule:nonzero;stroke:none"
         transform="matrix(0.13333333,0,0,-0.13333333,0,666.66667)" />
      <path
         id="path5"
         d="m 5913.88,3594.57 c -11,38.34 3.34,79.53 23.34,114.04 20.46,35.31 48.84,68.42 87.2,82.36 38.36,13.97 87.72,3.09 107.84,-32.42 14.28,-25.22 11.56,-56.21 8.43,-85.02 26.64,156.47 147.31,276.33 303.98,301.66 56.06,9.04 123.62,0.04 152.41,-48.89 11.31,-19.23 14.84,-42.16 14.57,-64.45 -0.74,-60.14 -29.02,-119.35 -75.29,-157.75 24.22,61.42 88.14,87.95 152.1,104.31 24.11,6.16 51.42,9.79 72.41,-3.55 22.58,-14.36 30.39,-44.04 29.25,-70.76 -1.05,-24.83 -8.25,-49.38 -20.75,-70.84 13.34,30.49 45.42,43.63 77.1,53.75 40.57,12.97 84.84,22.18 125.3,8.92 40.47,-13.28 73.83,-90.23 62.74,-131.36 H 5913.88"
         style="fill:#dad8ea;fill-opacity:1;fill-rule:nonzero;stroke:none"
         transform="matrix(0.13333333,0,0,-0.13333333,0,666.66667)" />
      <path
         id="path6"
         d="m 467.148,3517.9 c -10.996,38.34 3.34,79.53 23.34,114.04 20.457,35.31 48.848,68.42 87.207,82.36 38.36,13.97 87.715,3.09 107.832,-32.42 14.286,-25.21 11.563,-56.21 8.438,-85.02 26.64,156.47 147.305,276.33 303.973,301.67 56.062,9.04 123.622,0.03 152.412,-48.89 11.31,-19.24 14.85,-42.17 14.57,-64.45 -0.74,-60.15 -29.02,-119.36 -75.29,-157.76 24.22,61.42 88.14,87.95 152.1,104.31 24.11,6.16 51.42,9.79 72.41,-3.55 22.58,-14.36 30.39,-44.04 29.25,-70.76 -1.05,-24.83 -8.25,-49.38 -20.75,-70.84 13.34,30.49 45.42,43.63 77.11,53.75 40.56,12.97 84.83,22.18 125.29,8.92 40.47,-13.28 73.83,-90.23 62.74,-131.36 H 467.148"
         style="fill:#dad8ea;fill-opacity:1;fill-rule:nonzero;stroke:none"
         transform="matrix(0.13333333,0,0,-0.13333333,0,666.66667)" />
      <path
         id="path7"
         d="m 1992.45,2790.2 c -10.99,38.34 3.34,79.51 23.34,114.02 20.45,35.31 48.85,68.42 87.21,82.38 38.36,13.97 87.71,3.09 107.83,-32.44 14.28,-25.21 11.56,-56.21 8.44,-85 26.64,156.45 147.3,276.31 303.96,301.64 56.08,9.04 123.64,0.04 152.42,-48.89 11.31,-19.21 14.85,-42.14 14.57,-64.45 -0.74,-60.12 -29.02,-119.35 -75.29,-157.73 24.22,61.4 88.15,87.93 152.09,104.29 24.12,6.16 51.43,9.79 72.42,-3.55 22.58,-14.36 30.39,-44.04 29.24,-70.76 -1.03,-24.83 -8.24,-49.38 -20.74,-70.84 13.34,30.49 45.41,43.63 77.11,53.75 40.57,12.97 84.82,22.18 125.29,8.92 40.47,-13.26 73.83,-90.23 62.74,-131.34 H 1992.45"
         style="fill:#dad8ea;fill-opacity:1;fill-rule:nonzero;stroke:none"
         transform="matrix(0.13333333,0,0,-0.13333333,0,666.66667)" />
      <path
         id="path8"
         d="m 645.043,3916.71 -52.234,16.62 52.234,16.64 16.621,52.24 16.629,-52.24 52.242,-16.64 -52.242,-16.62 -16.629,-52.24 -16.621,52.24"
         style="fill:#dad8ea;fill-opacity:1;fill-rule:nonzero;stroke:none"
         transform="matrix(0.13333333,0,0,-0.13333333,0,666.66667)" />
      <path
         id="path9"
         d="m 6821.72,3279.96 -52.25,16.62 52.25,16.64 16.62,52.24 16.62,-52.24 52.23,-16.64 -52.23,-16.62 -16.62,-52.24 -16.62,52.24"
         style="fill:#dad8ea;fill-opacity:1;fill-rule:nonzero;stroke:none"
         transform="matrix(0.13333333,0,0,-0.13333333,0,666.66667)" />
      <path
         id="path10"
         d="m 5340.49,3969.73 -52.27,16.62 52.27,16.62 16.62,52.24 16.62,-52.24 52.23,-16.62 -52.23,-16.62 -16.62,-52.25 -16.62,52.25"
         style="fill:#dad8ea;fill-opacity:1;fill-rule:nonzero;stroke:none"
         transform="matrix(0.13333333,0,0,-0.13333333,0,666.66667)" />
      <path
         id="path11"
         d="m 1536.98,3080.14 -52.25,16.62 52.25,16.62 16.61,52.24 16.63,-52.24 52.25,-16.62 -52.25,-16.62 -16.63,-52.24 -16.61,52.24"
         style="fill:#dad8ea;fill-opacity:1;fill-rule:nonzero;stroke:none"
         transform="matrix(0.13333333,0,0,-0.13333333,0,666.66667)" />
      <path
         id="path12"
         d="m 4022.97,3279.91 -52.25,16.62 52.25,16.62 16.62,52.25 16.62,-52.25 52.25,-16.62 -52.25,-16.62 -16.62,-52.24 -16.62,52.24"
         style="fill:#dad8ea;fill-opacity:1;fill-rule:nonzero;stroke:none"
         transform="matrix(0.13333333,0,0,-0.13333333,0,666.66667)" />
      <path
         id="path13"
         d="m 2456.27,4258.4 -52.25,16.62 52.25,16.62 16.61,52.24 16.62,-52.24 52.25,-16.62 -52.25,-16.62 -16.62,-52.25 -16.61,52.25"
         style="fill:#dad8ea;fill-opacity:1;fill-rule:nonzero;stroke:none"
         transform="matrix(0.13333333,0,0,-0.13333333,0,666.66667)" />
      <path
         id="path14"
         d="m 3374.48,3619.51 c 0,-13.78 -11.17,-24.94 -24.94,-24.94 v 0 c -13.77,0 -24.95,11.16 -24.95,24.94 v 0 c 0,13.77 11.18,24.94 24.95,24.94 v 0 c 13.77,0 24.94,-11.17 24.94,-24.94 v 0"
         style="fill:#dad8ea;fill-opacity:1;fill-rule:nonzero;stroke:none"
         transform="matrix(0.13333333,0,0,-0.13333333,0,666.66667)" />
      <path
         id="path15"
         d="m 1274.65,4415.21 c 0,-13.79 -11.17,-24.94 -24.95,-24.94 v 0 c -13.77,0 -24.94,11.15 -24.94,24.94 v 0 c 0,13.77 11.17,24.93 24.94,24.93 v 0 c 13.78,0 24.95,-11.16 24.95,-24.93 v 0"
         style="fill:#dad8ea;fill-opacity:1;fill-rule:nonzero;stroke:none"
         transform="matrix(0.13333333,0,0,-0.13333333,0,666.66667)" />
      <path
         id="path16"
         d="m 6197.44,4507.01 c 0,-13.79 -11.15,-24.95 -24.92,-24.95 v 0 c -13.77,0 -24.96,11.16 -24.96,24.95 v 0 c 0,13.77 11.19,24.94 24.96,24.94 v 0 c 13.77,0 24.92,-11.17 24.92,-24.94 v 0"
         style="fill:#dad8ea;fill-opacity:1;fill-rule:nonzero;stroke:none"
         transform="matrix(0.13333333,0,0,-0.13333333,0,666.66667)" />
      <path
         id="path17"
         d="m 6025.78,2880.42 c 0,-13.78 -11.17,-24.95 -24.94,-24.95 v 0 c -13.77,0 -24.94,11.17 -24.94,24.95 v 0 c 0,13.77 11.17,24.93 24.94,24.93 v 0 c 13.77,0 24.94,-11.16 24.94,-24.93 v 0"
         style="fill:#dad8ea;fill-opacity:1;fill-rule:nonzero;stroke:none"
         transform="matrix(0.13333333,0,0,-0.13333333,0,666.66667)" />
      <path
         id="path18"
         d="m 4936,3271.6 c 0,-13.78 -11.18,-24.95 -24.95,-24.95 v 0 c -13.76,0 -24.94,11.17 -24.94,24.95 v 0 c 0,13.78 11.18,24.93 24.94,24.93 v 0 c 13.77,0 24.95,-11.15 24.95,-24.93 v 0"
         style="fill:#dad8ea;fill-opacity:1;fill-rule:nonzero;stroke:none"
         transform="matrix(0.13333333,0,0,-0.13333333,0,666.66667)" />
      <path
         id="path19"
         d="m 780.422,2903.43 c 0,-13.77 -11.164,-24.94 -24.942,-24.94 v 0 c -13.777,0 -24.945,11.17 -24.945,24.94 v 0 c 0,13.78 11.168,24.95 24.945,24.95 v 0 c 13.778,0 24.942,-11.17 24.942,-24.95 v 0"
         style="fill:#dad8ea;fill-opacity:1;fill-rule:nonzero;stroke:none"
         transform="matrix(0.13333333,0,0,-0.13333333,0,666.66667)" />
      <path
         id="path20"
         d="M 7500,1230.7 H 0 v 116.15 H 7500 V 1230.7"
         style="fill:#16181e;fill-opacity:1;fill-rule:nonzero;stroke:none"
         transform="matrix(0.13333333,0,0,-0.13333333,0,666.66667)" />
      <path
         id="path21"
         d="M 3315.79,1346.85 H 2793.2 v 550.42 h 522.59 v -550.42"
         style="fill:#9798af;fill-opacity:1;fill-rule:nonzero;stroke:none"
         transform="matrix(0.13333333,0,0,-0.13333333,0,666.66667)" />
      <path
         id="path22"
         d="m 3270.74,1876.18 h -432.48 v 594.67 h 432.48 v -594.67"
         style="fill:#9798af;fill-opacity:1;fill-rule:nonzero;stroke:none"
         transform="matrix(0.13333333,0,0,-0.13333333,0,666.66667)" />
      <path
         id="path23"
         d="m 3227.94,2394.25 h -346.89 v 135.17 h 346.89 v -135.17"
         style="fill:#9798af;fill-opacity:1;fill-rule:nonzero;stroke:none"
         transform="matrix(0.13333333,0,0,-0.13333333,0,666.66667)" />
      <path
         id="path24"
         d="m 3155.86,2479.84 h -202.73 v 81.11 h 202.73 v -81.11"
         style="fill:#9798af;fill-opacity:1;fill-rule:nonzero;stroke:none"
         transform="matrix(0.13333333,0,0,-0.13333333,0,666.66667)" />
      <path
         id="path25"
         d="m 3102.36,2543.49 h -95.73 v 40.55 h 95.73 v -40.55"
         style="fill:#9798af;fill-opacity:1;fill-rule:nonzero;stroke:none"
         transform="matrix(0.13333333,0,0,-0.13333333,0,666.66667)" />
      <path
         id="path26"
         d="m 1357.79,1347.74 h -285.08 v 1088.19 h 285.08 V 1347.74"
         style="fill:#9798af;fill-opacity:1;fill-rule:nonzero;stroke:none"
         transform="matrix(0.13333333,0,0,-0.13333333,0,666.66667)" />
      <path
         id="path27"
         d="m 1278.7,2383.79 h -126.9 v 112.99 h 126.9 v -112.99"
         style="fill:#9798af;fill-opacity:1;fill-rule:nonzero;stroke:none"
         transform="matrix(0.13333333,0,0,-0.13333333,0,666.66667)" />
      <path
         id="path28"
         d="m 1179.39,2383.79 h -77.35 v 126.88 l 77.35,39.99 v -166.87"
         style="fill:#9798af;fill-opacity:1;fill-rule:nonzero;stroke:none"
         transform="matrix(0.13333333,0,0,-0.13333333,0,666.66667)" />
      <path
         id="path29"
         d="m 1251.1,2383.79 h 77.36 v 126.88 l -77.36,39.99 v -166.87"
         style="fill:#9798af;fill-opacity:1;fill-rule:nonzero;stroke:none"
         transform="matrix(0.13333333,0,0,-0.13333333,0,666.66667)" />
      <path
         id="path30"
         d="m 1978.86,1347.74 h -431.1 v 1219.13 h 431.1 V 1347.74"
         style="fill:#9798af;fill-opacity:1;fill-rule:nonzero;stroke:none"
         transform="matrix(0.13333333,0,0,-0.13333333,0,666.66667)" />
      <path
         id="path31"
         d="m 1999.72,2402.3 h -236.41 v 222.51 h 236.41 V 2402.3"
         style="fill:#9798af;fill-opacity:1;fill-rule:nonzero;stroke:none"
         transform="matrix(0.13333333,0,0,-0.13333333,0,666.66667)" />
      <path
         id="path32"
         d="m 2250.34,2214.57 78.81,234.1 268.85,-117.04 v -983.89 h -347.66 v 866.83"
         style="fill:#9798af;fill-opacity:1;fill-rule:nonzero;stroke:none"
         transform="matrix(0.13333333,0,0,-0.13333333,0,666.66667)" />
      <path
         id="path33"
         d="m 5929.57,1346.85 h -522.59 v 550.42 h 522.59 v -550.42"
         style="fill:#9798af;fill-opacity:1;fill-rule:nonzero;stroke:none"
         transform="matrix(0.13333333,0,0,-0.13333333,0,666.66667)" />
      <path
         id="path34"
         d="m 5884.51,1876.18 h -432.48 v 594.67 h 432.48 v -594.67"
         style="fill:#9798af;fill-opacity:1;fill-rule:nonzero;stroke:none"
         transform="matrix(0.13333333,0,0,-0.13333333,0,666.66667)" />
      <path
         id="path35"
         d="m 5841.72,2394.25 h -346.9 v 135.17 h 346.9 v -135.17"
         style="fill:#9798af;fill-opacity:1;fill-rule:nonzero;stroke:none"
         transform="matrix(0.13333333,0,0,-0.13333333,0,666.66667)" />
      <path
         id="path36"
         d="m 5769.64,2479.84 h -202.73 v 81.11 h 202.73 v -81.11"
         style="fill:#9798af;fill-opacity:1;fill-rule:nonzero;stroke:none"
         transform="matrix(0.13333333,0,0,-0.13333333,0,666.66667)" />
      <path
         id="path37"
         d="m 5716.13,2543.49 h -95.72 v 40.55 h 95.72 v -40.55"
         style="fill:#9798af;fill-opacity:1;fill-rule:nonzero;stroke:none"
         transform="matrix(0.13333333,0,0,-0.13333333,0,666.66667)" />
      <path
         id="path38"
         d="m 4441.09,1347.74 h -285.08 v 1088.19 h 285.08 V 1347.74"
         style="fill:#9798af;fill-opacity:1;fill-rule:nonzero;stroke:none"
         transform="matrix(0.13333333,0,0,-0.13333333,0,666.66667)" />
      <path
         id="path39"
         d="M 4361.99,2383.79 H 4235.1 v 112.99 h 126.89 v -112.99"
         style="fill:#9798af;fill-opacity:1;fill-rule:nonzero;stroke:none"
         transform="matrix(0.13333333,0,0,-0.13333333,0,666.66667)" />
      <path
         id="path40"
         d="m 4262.7,2383.79 h -77.37 v 126.88 l 77.37,39.99 v -166.87"
         style="fill:#9798af;fill-opacity:1;fill-rule:nonzero;stroke:none"
         transform="matrix(0.13333333,0,0,-0.13333333,0,666.66667)" />
      <path
         id="path41"
         d="m 4334.39,2383.79 h 77.37 v 126.88 l -77.37,39.99 v -166.87"
         style="fill:#9798af;fill-opacity:1;fill-rule:nonzero;stroke:none"
         transform="matrix(0.13333333,0,0,-0.13333333,0,666.66667)" />
      <path
         id="path42"
         d="M 5350.1,1347.74 H 4918.99 V 2566.87 H 5350.1 V 1347.74"
         style="fill:#9798af;fill-opacity:1;fill-rule:nonzero;stroke:none"
         transform="matrix(0.13333333,0,0,-0.13333333,0,666.66667)" />
      <path
         id="path43"
         d="m 5370.96,2402.3 h -236.41 v 222.51 h 236.41 V 2402.3"
         style="fill:#9798af;fill-opacity:1;fill-rule:nonzero;stroke:none"
         transform="matrix(0.13333333,0,0,-0.13333333,0,666.66667)" />
      <path
         id="path44"
         d="m 4515.7,2214.57 78.81,234.1 268.86,-117.04 V 1347.74 H 4515.7 v 866.83"
         style="fill:#9798af;fill-opacity:1;fill-rule:nonzero;stroke:none"
         transform="matrix(0.13333333,0,0,-0.13333333,0,666.66667)" />
      <path
         id="path45"
         d="M 7320.18,1346.85 H 6797.6 v 550.42 h 522.58 v -550.42"
         style="fill:#9798af;fill-opacity:1;fill-rule:nonzero;stroke:none"
         transform="matrix(0.13333333,0,0,-0.13333333,0,666.66667)" />
      <path
         id="path46"
         d="m 7275.13,1876.18 h -432.48 v 594.67 h 432.48 v -594.67"
         style="fill:#9798af;fill-opacity:1;fill-rule:nonzero;stroke:none"
         transform="matrix(0.13333333,0,0,-0.13333333,0,666.66667)" />
      <path
         id="path47"
         d="m 7232.32,2394.25 h -346.88 v 135.17 h 346.88 v -135.17"
         style="fill:#9798af;fill-opacity:1;fill-rule:nonzero;stroke:none"
         transform="matrix(0.13333333,0,0,-0.13333333,0,666.66667)" />
      <path
         id="path48"
         d="m 7160.25,2479.84 h -202.73 v 81.11 h 202.73 v -81.11"
         style="fill:#9798af;fill-opacity:1;fill-rule:nonzero;stroke:none"
         transform="matrix(0.13333333,0,0,-0.13333333,0,666.66667)" />
      <path
         id="path49"
         d="m 7106.75,2543.49 h -95.73 v 40.55 h 95.73 v -40.55"
         style="fill:#9798af;fill-opacity:1;fill-rule:nonzero;stroke:none"
         transform="matrix(0.13333333,0,0,-0.13333333,0,666.66667)" />
      <path
         id="path50"
         d="m 6269.77,2214.57 78.8,234.1 268.85,-117.04 v -983.89 h -347.65 v 866.83"
         style="fill:#9798af;fill-opacity:1;fill-rule:nonzero;stroke:none"
         transform="matrix(0.13333333,0,0,-0.13333333,0,666.66667)" />
      <path
         id="path51"
         d="m 7262.75,1918.24 c 0,-246.96 -200.12,-447.08 -447.11,-447.08 -246.95,0 -447.1,200.12 -447.1,447.08 0,247 200.15,447.12 447.1,447.12 246.99,0 447.11,-200.12 447.11,-447.12 z"
         style="fill:none;stroke:#16181e;stroke-width:13.4358;stroke-linecap:butt;stroke-linejoin:miter;stroke-miterlimit:10;stroke-dasharray:none;stroke-opacity:1"
         transform="matrix(0.13333333,0,0,-0.13333333,0,666.66667)" />
      <path
         id="path52"
         d="m 6815.64,2395.53 v -954.5"
         style="fill:none;stroke:#16181e;stroke-width:12.8408;stroke-linecap:round;stroke-linejoin:round;stroke-miterlimit:10;stroke-dasharray:none;stroke-opacity:1"
         transform="matrix(0.13333333,0,0,-0.13333333,0,666.66667)" />
      <path
         id="path53"
         d="M 6338.42,1918.24 H 7292.9"
         style="fill:none;stroke:#16181e;stroke-width:12.8408;stroke-linecap:round;stroke-linejoin:round;stroke-miterlimit:10;stroke-dasharray:none;stroke-opacity:1"
         transform="matrix(0.13333333,0,0,-0.13333333,0,666.66667)" />
      <path
         id="path54"
         d="M 6919.14,2384.13 6712.16,1452.37"
         style="fill:none;stroke:#16181e;stroke-width:12.8408;stroke-linecap:round;stroke-linejoin:round;stroke-miterlimit:10;stroke-dasharray:none;stroke-opacity:1"
         transform="matrix(0.13333333,0,0,-0.13333333,0,666.66667)" />
      <path
         id="path55"
         d="m 6349.77,2021.75 931.76,-206.97"
         style="fill:none;stroke:#16181e;stroke-width:12.8408;stroke-linecap:round;stroke-linejoin:round;stroke-miterlimit:10;stroke-dasharray:none;stroke-opacity:1"
         transform="matrix(0.13333333,0,0,-0.13333333,0,666.66667)" />
      <path
         id="path56"
         d="M 7015.82,2351.51 6615.5,1485.03"
         style="fill:none;stroke:#16181e;stroke-width:12.8408;stroke-linecap:round;stroke-linejoin:round;stroke-miterlimit:10;stroke-dasharray:none;stroke-opacity:1"
         transform="matrix(0.13333333,0,0,-0.13333333,0,666.66667)" />
      <path
         id="path57"
         d="m 6382.39,2118.4 866.5,-400.28"
         style="fill:none;stroke:#16181e;stroke-width:12.8408;stroke-linecap:round;stroke-linejoin:round;stroke-miterlimit:10;stroke-dasharray:none;stroke-opacity:1"
         transform="matrix(0.13333333,0,0,-0.13333333,0,666.66667)" />
      <path
         id="path58"
         d="M 7108.96,2294.76 6522.34,1541.8"
         style="fill:none;stroke:#16181e;stroke-width:12.8408;stroke-linecap:round;stroke-linejoin:round;stroke-miterlimit:10;stroke-dasharray:none;stroke-opacity:1"
         transform="matrix(0.13333333,0,0,-0.13333333,0,666.66667)" />
      <path
         id="path59"
         d="m 6439.17,2211.54 752.94,-586.56"
         style="fill:none;stroke:#16181e;stroke-width:12.8408;stroke-linecap:round;stroke-linejoin:round;stroke-miterlimit:10;stroke-dasharray:none;stroke-opacity:1"
         transform="matrix(0.13333333,0,0,-0.13333333,0,666.66667)" />
      <path
         id="path60"
         d="M 7185.67,2219.67 6445.63,1616.86"
         style="fill:none;stroke:#16181e;stroke-width:12.8408;stroke-linecap:round;stroke-linejoin:round;stroke-miterlimit:10;stroke-dasharray:none;stroke-opacity:1"
         transform="matrix(0.13333333,0,0,-0.13333333,0,666.66667)" />
      <path
         id="path61"
         d="m 6514.24,2288.28 602.82,-740.04"
         style="fill:none;stroke:#16181e;stroke-width:12.8408;stroke-linecap:round;stroke-linejoin:round;stroke-miterlimit:10;stroke-dasharray:none;stroke-opacity:1"
         transform="matrix(0.13333333,0,0,-0.13333333,0,666.66667)" />
      <path
         id="path62"
         d="M 7247,2122.5 6384.3,1714.02"
         style="fill:none;stroke:#16181e;stroke-width:12.8408;stroke-linecap:round;stroke-linejoin:round;stroke-miterlimit:10;stroke-dasharray:none;stroke-opacity:1"
         transform="matrix(0.13333333,0,0,-0.13333333,0,666.66667)" />
      <path
         id="path63"
         d="m 6611.41,2349.58 408.5,-862.65"
         style="fill:none;stroke:#16181e;stroke-width:12.8408;stroke-linecap:round;stroke-linejoin:round;stroke-miterlimit:10;stroke-dasharray:none;stroke-opacity:1"
         transform="matrix(0.13333333,0,0,-0.13333333,0,666.66667)" />
      <path
         id="path64"
         d="M 7280.4,2026.8 6350.9,1809.72"
         style="fill:none;stroke:#16181e;stroke-width:12.8408;stroke-linecap:round;stroke-linejoin:round;stroke-miterlimit:10;stroke-dasharray:none;stroke-opacity:1"
         transform="matrix(0.13333333,0,0,-0.13333333,0,666.66667)" />
      <path
         id="path65"
         d="m 6707.1,2382.98 217.1,-929.44"
         style="fill:none;stroke:#16181e;stroke-width:12.8408;stroke-linecap:round;stroke-linejoin:round;stroke-miterlimit:10;stroke-dasharray:none;stroke-opacity:1"
         transform="matrix(0.13333333,0,0,-0.13333333,0,666.66667)" />
      <path
         id="path66"
         d="m 6842.93,2395.53 c 0,-15.1 -12.21,-27.29 -27.29,-27.29 -15.04,0 -27.29,12.19 -27.29,27.29 0,15.05 12.25,27.29 27.29,27.29 15.08,0 27.29,-12.24 27.29,-27.29"
         style="fill:#16181e;fill-opacity:1;fill-rule:nonzero;stroke:none"
         transform="matrix(0.13333333,0,0,-0.13333333,0,666.66667)" />
      <path
         id="path67"
         d="m 6842.93,1441.03 c 0,-15.09 -12.21,-27.29 -27.29,-27.29 -15.04,0 -27.29,12.2 -27.29,27.29 0,15.07 12.25,27.27 27.29,27.27 15.08,0 27.29,-12.2 27.29,-27.27"
         style="fill:#16181e;fill-opacity:1;fill-rule:nonzero;stroke:none"
         transform="matrix(0.13333333,0,0,-0.13333333,0,666.66667)" />
      <path
         id="path68"
         d="m 6338.42,1945.55 c 15.08,0 27.27,-12.22 27.27,-27.31 0,-15.06 -12.19,-27.26 -27.27,-27.26 -15.1,0 -27.3,12.2 -27.3,27.26 0,15.09 12.2,27.31 27.3,27.31"
         style="fill:#16181e;fill-opacity:1;fill-rule:nonzero;stroke:none"
         transform="matrix(0.13333333,0,0,-0.13333333,0,666.66667)" />
      <path
         id="path69"
         d="m 7292.9,1945.55 c 15.05,0 27.28,-12.22 27.28,-27.31 0,-15.06 -12.23,-27.26 -27.28,-27.26 -15.1,0 -27.29,12.2 -27.29,27.26 0,15.09 12.19,27.31 27.29,27.31"
         style="fill:#16181e;fill-opacity:1;fill-rule:nonzero;stroke:none"
         transform="matrix(0.13333333,0,0,-0.13333333,0,666.66667)" />
      <path
         id="path70"
         d="m 6356.03,2049.6 c 14.69,-3.31 23.94,-17.92 20.65,-32.62 -3.34,-14.71 -17.93,-23.93 -32.65,-20.65 -14.69,3.33 -23.94,17.94 -20.64,32.63 3.31,14.7 17.91,23.92 32.64,20.64"
         style="fill:#16181e;fill-opacity:1;fill-rule:nonzero;stroke:none"
         transform="matrix(0.13333333,0,0,-0.13333333,0,666.66667)" />
      <path
         id="path71"
         d="m 7287.27,1840.19 c 14.69,-3.31 23.92,-17.9 20.62,-32.62 -3.31,-14.71 -17.9,-23.93 -32.6,-20.62 -14.71,3.28 -23.94,17.91 -20.63,32.6 3.3,14.74 17.91,23.95 32.61,20.64"
         style="fill:#16181e;fill-opacity:1;fill-rule:nonzero;stroke:none"
         transform="matrix(0.13333333,0,0,-0.13333333,0,666.66667)" />
      <path
         id="path72"
         d="m 6684.35,1458.66 c 3.29,14.7 17.9,23.91 32.61,20.62 14.7,-3.29 23.93,-17.92 20.62,-32.62 -3.32,-14.73 -17.89,-23.95 -32.61,-20.62 -14.7,3.29 -23.93,17.89 -20.62,32.62"
         style="fill:#16181e;fill-opacity:1;fill-rule:nonzero;stroke:none"
         transform="matrix(0.13333333,0,0,-0.13333333,0,666.66667)" />
      <path
         id="path73"
         d="m 6893.72,2389.89 c 3.32,14.69 17.93,23.92 32.61,20.62 14.71,-3.29 23.96,-17.89 20.64,-32.6 -3.31,-14.71 -17.9,-23.97 -32.59,-20.65 -14.72,3.33 -23.93,17.9 -20.66,32.63"
         style="fill:#16181e;fill-opacity:1;fill-rule:nonzero;stroke:none"
         transform="matrix(0.13333333,0,0,-0.13333333,0,666.66667)" />
      <path
         id="path74"
         d="m 6395.03,2145.4 c 13.65,-6.39 19.53,-22.64 13.13,-36.29 -6.39,-13.65 -22.63,-19.53 -36.27,-13.13 -13.65,6.37 -19.55,22.62 -13.17,36.28 6.42,13.65 22.67,19.54 36.31,13.14"
         style="fill:#16181e;fill-opacity:1;fill-rule:nonzero;stroke:none"
         transform="matrix(0.13333333,0,0,-0.13333333,0,666.66667)" />
      <path
         id="path75"
         d="m 7259.42,1740.55 c 13.63,-6.38 19.54,-22.63 13.14,-36.26 -6.41,-13.67 -22.63,-19.54 -36.29,-13.15 -13.65,6.37 -19.51,22.62 -13.12,36.27 6.38,13.68 22.62,19.55 36.27,13.14"
         style="fill:#16181e;fill-opacity:1;fill-rule:nonzero;stroke:none"
         transform="matrix(0.13333333,0,0,-0.13333333,0,666.66667)" />
      <path
         id="path76"
         d="m 6588.53,1497.65 c 6.39,13.65 22.63,19.54 36.28,13.14 13.67,-6.4 19.52,-22.64 13.14,-36.3 -6.41,-13.63 -22.63,-19.5 -36.27,-13.12 -13.65,6.38 -19.55,22.62 -13.15,36.28"
         style="fill:#16181e;fill-opacity:1;fill-rule:nonzero;stroke:none"
         transform="matrix(0.13333333,0,0,-0.13333333,0,666.66667)" />
      <path
         id="path77"
         d="m 6993.35,2362.02 c 6.4,13.65 22.65,19.53 36.29,13.13 13.67,-6.39 19.53,-22.61 13.13,-36.26 -6.39,-13.67 -22.61,-19.55 -36.29,-13.14 -13.62,6.39 -19.51,22.63 -13.13,36.27"
         style="fill:#16181e;fill-opacity:1;fill-rule:nonzero;stroke:none"
         transform="matrix(0.13333333,0,0,-0.13333333,0,666.66667)" />
      <path
         id="path78"
         d="m 6457.11,2234.43 c 11.86,-9.29 13.93,-26.44 4.6,-38.34 -9.31,-11.83 -26.45,-13.89 -38.29,-4.6 -11.87,9.32 -13.95,26.47 -4.62,38.33 9.3,11.86 26.46,13.92 38.31,4.61"
         style="fill:#1c1d29;fill-opacity:1;fill-rule:nonzero;stroke:none"
         transform="matrix(0.13333333,0,0,-0.13333333,0,666.66667)" />
      <path
         id="path79"
         d="m 7207.9,1645.04 c 11.85,-9.33 13.93,-26.48 4.62,-38.32 -9.34,-11.84 -26.48,-13.92 -38.33,-4.61 -11.85,9.28 -13.93,26.45 -4.6,38.32 9.29,11.86 26.45,13.92 38.31,4.61"
         style="fill:#1c1d29;fill-opacity:1;fill-rule:nonzero;stroke:none"
         transform="matrix(0.13333333,0,0,-0.13333333,0,666.66667)" />
      <path
         id="path80"
         d="m 6499.5,1559.73 c 9.31,11.83 26.45,13.93 38.31,4.61 11.87,-9.28 13.93,-26.46 4.62,-38.32 -9.33,-11.84 -26.46,-13.9 -38.31,-4.62 -11.83,9.33 -13.92,26.45 -4.62,38.33"
         style="fill:#1c1d29;fill-opacity:1;fill-rule:nonzero;stroke:none"
         transform="matrix(0.13333333,0,0,-0.13333333,0,666.66667)" />
      <path
         id="path81"
         d="m 7088.89,2310.51 c 9.31,11.83 26.46,13.91 38.31,4.6 11.84,-9.32 13.92,-26.45 4.62,-38.31 -9.34,-11.84 -26.47,-13.92 -38.33,-4.61 -11.85,9.32 -13.91,26.45 -4.6,38.32"
         style="fill:#1c1d29;fill-opacity:1;fill-rule:nonzero;stroke:none"
         transform="matrix(0.13333333,0,0,-0.13333333,0,666.66667)" />
      <path
         id="path82"
         d="m 6534.21,2304.66 c 9.57,-11.66 7.84,-28.87 -3.81,-38.43 -11.68,-9.54 -28.86,-7.85 -38.41,3.82 -9.56,11.67 -7.86,28.88 3.79,38.4 11.66,9.58 28.88,7.86 38.43,-3.79"
         style="fill:#1c1d29;fill-opacity:1;fill-rule:nonzero;stroke:none"
         transform="matrix(0.13333333,0,0,-0.13333333,0,666.66667)" />
      <path
         id="path83"
         d="m 7139.33,1566.49 c 9.54,-11.66 7.84,-28.87 -3.81,-38.41 -11.67,-9.54 -28.84,-7.83 -38.43,3.8 -9.53,11.65 -7.82,28.85 3.83,38.4 11.66,9.58 28.84,7.85 38.41,-3.79"
         style="fill:#1c1d29;fill-opacity:1;fill-rule:nonzero;stroke:none"
         transform="matrix(0.13333333,0,0,-0.13333333,0,666.66667)" />
      <path
         id="path84"
         d="m 6429.28,1636.82 c 11.65,9.53 28.85,7.84 38.41,-3.81 9.55,-11.64 7.85,-28.84 -3.82,-38.4 -11.65,-9.56 -28.8,-7.85 -38.37,3.79 -9.57,11.65 -7.88,28.84 3.78,38.42"
         style="fill:#1c1d29;fill-opacity:1;fill-rule:nonzero;stroke:none"
         transform="matrix(0.13333333,0,0,-0.13333333,0,666.66667)" />
      <path
         id="path85"
         d="m 7167.43,2241.93 c 11.67,9.54 28.86,7.84 38.39,-3.81 9.59,-11.66 7.86,-28.83 -3.78,-38.41 -11.67,-9.55 -28.87,-7.84 -38.41,3.81 -9.57,11.69 -7.83,28.83 3.8,38.41"
         style="fill:#1c1d29;fill-opacity:1;fill-rule:nonzero;stroke:none"
         transform="matrix(0.13333333,0,0,-0.13333333,0,666.66667)" />
      <path
         id="path86"
         d="m 6634.72,2360.74 c 6.49,-13.62 0.71,-29.89 -12.88,-36.39 -13.63,-6.53 -29.89,-0.76 -36.37,12.87 -6.51,13.61 -0.75,29.89 12.86,36.38 13.58,6.51 29.91,0.71 36.39,-12.86"
         style="fill:#16181e;fill-opacity:1;fill-rule:nonzero;stroke:none"
         transform="matrix(0.13333333,0,0,-0.13333333,0,666.66667)" />
      <path
         id="path87"
         d="m 7045.85,1499.33 c 6.49,-13.62 0.73,-29.89 -12.88,-36.42 -13.59,-6.46 -29.89,-0.7 -36.39,12.9 -6.49,13.59 -0.71,29.89 12.89,36.36 13.62,6.51 29.88,0.75 36.38,-12.84"
         style="fill:#16181e;fill-opacity:1;fill-rule:nonzero;stroke:none"
         transform="matrix(0.13333333,0,0,-0.13333333,0,666.66667)" />
      <path
         id="path88"
         d="m 6373.2,1737.33 c 13.61,6.48 29.88,0.73 36.39,-12.88 6.49,-13.6 0.71,-29.9 -12.89,-36.37 -13.59,-6.52 -29.85,-0.76 -36.38,12.84 -6.47,13.62 -0.73,29.9 12.88,36.41"
         style="fill:#16181e;fill-opacity:1;fill-rule:nonzero;stroke:none"
         transform="matrix(0.13333333,0,0,-0.13333333,0,666.66667)" />
      <path
         id="path89"
         d="m 7234.6,2148.45 c 13.59,6.51 29.91,0.75 36.39,-12.84 6.48,-13.63 0.71,-29.91 -12.87,-36.42 -13.61,-6.48 -29.9,-0.7 -36.37,12.88 -6.5,13.62 -0.73,29.9 12.85,36.38"
         style="fill:#16181e;fill-opacity:1;fill-rule:nonzero;stroke:none"
         transform="matrix(0.13333333,0,0,-0.13333333,0,666.66667)" />
      <path
         id="path90"
         d="m 6734.47,2389.37 c 3.41,-14.71 -5.74,-29.36 -20.44,-32.77 -14.69,-3.41 -29.33,5.71 -32.74,20.42 -3.41,14.7 5.74,29.34 20.42,32.76 14.68,3.4 29.35,-5.75 32.76,-20.41"
         style="fill:#16181e;fill-opacity:1;fill-rule:nonzero;stroke:none"
         transform="matrix(0.13333333,0,0,-0.13333333,0,666.66667)" />
      <path
         id="path91"
         d="m 6949.99,1459.51 c 3.43,-14.67 -5.72,-29.35 -20.4,-32.76 -14.68,-3.38 -29.34,5.77 -32.76,20.41 -3.41,14.7 5.76,29.36 20.42,32.76 14.73,3.41 29.37,-5.71 32.74,-20.41"
         style="fill:#16181e;fill-opacity:1;fill-rule:nonzero;stroke:none"
         transform="matrix(0.13333333,0,0,-0.13333333,0,666.66667)" />
      <path
         id="path92"
         d="m 6344.56,1837.08 c 14.7,3.39 29.36,-5.75 32.78,-20.44 3.41,-14.68 -5.76,-29.35 -20.42,-32.69 -14.72,-3.46 -29.36,5.68 -32.76,20.35 -3.39,14.69 5.74,29.34 20.4,32.78"
         style="fill:#16181e;fill-opacity:1;fill-rule:nonzero;stroke:none"
         transform="matrix(0.13333333,0,0,-0.13333333,0,666.66667)" />
      <path
         id="path93"
         d="m 7274.41,2052.64 c 14.66,3.41 29.34,-5.77 32.73,-20.41 3.41,-14.71 -5.7,-29.38 -20.4,-32.77 -14.7,-3.41 -29.36,5.74 -32.75,20.42 -3.4,14.7 5.75,29.34 20.42,32.76"
         style="fill:#16181e;fill-opacity:1;fill-rule:nonzero;stroke:none"
         transform="matrix(0.13333333,0,0,-0.13333333,0,666.66667)" />
      <path
         id="path94"
         d="m 6879.67,1918.24 c 0,-35.34 -28.66,-64.03 -64.03,-64.03 -35.35,0 -64.03,28.69 -64.03,64.03 0,35.38 28.68,64.06 64.03,64.06 35.37,0 64.03,-28.68 64.03,-64.06"
         style="fill:#16181e;fill-opacity:1;fill-rule:nonzero;stroke:none"
         transform="matrix(0.13333333,0,0,-0.13333333,0,666.66667)" />
      <path
         id="path95"
         d="m 6879.67,1918.24 c 0,-35.34 -28.66,-64.03 -64.03,-64.03 -35.35,0 -64.03,28.69 -64.03,64.03 0,35.38 28.68,64.06 64.03,64.06 35.37,0 64.03,-28.68 64.03,-64.06 z"
         style="fill:none;stroke:#373a50;stroke-width:12.8408;stroke-linecap:round;stroke-linejoin:round;stroke-miterlimit:10;stroke-dasharray:none;stroke-opacity:1"
         transform="matrix(0.13333333,0,0,-0.13333333,0,666.66667)" />
      <path
         id="path96"
         d="m 6833.86,1346.85 h -36.4 v 571.39 h 36.4 v -571.39"
         style="fill:#16181e;fill-opacity:1;fill-rule:nonzero;stroke:none"
         transform="matrix(0.13333333,0,0,-0.13333333,0,666.66667)" />
      <path
         id="path97"
         d="m 6631.45,1346.85 h -36.39 l 202.4,571.39 h 36.4 l -202.41,-571.39"
         style="fill:#16181e;fill-opacity:1;fill-rule:nonzero;stroke:none"
         transform="matrix(0.13333333,0,0,-0.13333333,0,666.66667)" />
      <path
         id="path98"
         d="m 6999.85,1346.85 h 36.39 l -202.38,571.39 h -36.4 l 202.39,-571.39"
         style="fill:#16181e;fill-opacity:1;fill-rule:nonzero;stroke:none"
         transform="matrix(0.13333333,0,0,-0.13333333,0,666.66667)" />
      <path
         id="path99"
         d="m 6714.96,1685.39 70.11,197.86"
         style="fill:none;stroke:#373a50;stroke-width:12.8408;stroke-linecap:round;stroke-linejoin:round;stroke-miterlimit:10;stroke-dasharray:none;stroke-opacity:1"
         transform="matrix(0.13333333,0,0,-0.13333333,0,666.66667)" />
      <path
         id="path100"
         d="m 6914.71,1685.39 -70.08,197.86"
         style="fill:none;stroke:#373a50;stroke-width:12.8408;stroke-linecap:round;stroke-linejoin:round;stroke-miterlimit:10;stroke-dasharray:none;stroke-opacity:1"
         transform="matrix(0.13333333,0,0,-0.13333333,0,666.66667)" />
      <path
         id="path101"
         d="m 2116.36,2289.64 h -32.11 v 136.99 h 32.11 v -136.99"
         style="fill:#16181e;fill-opacity:1;fill-rule:nonzero;stroke:none"
         transform="matrix(0.13333333,0,0,-0.13333333,0,666.66667)" />
      <path
         id="path102"
         d="m 2160.21,2215 h -119.84 v 136.98 h 119.84 V 2215"
         style="fill:#16181e;fill-opacity:1;fill-rule:nonzero;stroke:none"
         transform="matrix(0.13333333,0,0,-0.13333333,0,666.66667)" />
      <path
         id="path103"
         d="m 2100.3,2252.3 c -213.02,0 -397.48,20.08 -487.95,49.37 v -388.53 h 975.89 v 388.53 c -90.48,-29.29 -274.94,-49.37 -487.94,-49.37"
         style="fill:#16181e;fill-opacity:1;fill-rule:nonzero;stroke:none"
         transform="matrix(0.13333333,0,0,-0.13333333,0,666.66667)" />
      <path
         id="path104"
         d="M 2931.74,1776.28 H 1268.87 v -429.43 h 1662.87 v 429.43"
         style="fill:#16181e;fill-opacity:1;fill-rule:nonzero;stroke:none"
         transform="matrix(0.13333333,0,0,-0.13333333,0,666.66667)" />
      <path
         id="path105"
         d="M 2931.74,1776.28 H 1268.87 v -429.43 h 1662.87 v 429.43"
         style="fill:#16181e;fill-opacity:1;fill-rule:nonzero;stroke:none"
         transform="matrix(0.13333333,0,0,-0.13333333,0,666.66667)" />
      <path
         id="path106"
         d="M 2864.33,1872.59 H 1336.28 v -429.45 h 1528.05 v 429.45"
         style="fill:#16181e;fill-opacity:1;fill-rule:nonzero;stroke:none"
         transform="matrix(0.13333333,0,0,-0.13333333,0,666.66667)" />
      <path
         id="path107"
         d="m 2100.3,2165.64 c -276.08,0 -515.15,20.07 -632.4,49.36 V 1826.46 H 2732.71 V 2215 c -117.27,-29.29 -356.32,-49.36 -632.41,-49.36"
         style="fill:#16181e;fill-opacity:1;fill-rule:nonzero;stroke:none"
         transform="matrix(0.13333333,0,0,-0.13333333,0,666.66667)" />
      <path
         id="path108"
         d="m 2257.08,2256.08 c -49.66,-2.46 -102.29,-3.78 -156.78,-3.78 -48.64,0 -95.84,1.08 -140.71,3.02"
         style="fill:none;stroke:#373a50;stroke-width:12.8408;stroke-linecap:round;stroke-linejoin:round;stroke-miterlimit:10;stroke-dasharray:none;stroke-opacity:1"
         transform="matrix(0.13333333,0,0,-0.13333333,0,666.66667)" />
      <path
         id="path109"
         d="M 1687.26,1773.45 V 1349.71"
         style="fill:none;stroke:#373a50;stroke-width:12.8408;stroke-linecap:round;stroke-linejoin:round;stroke-miterlimit:10;stroke-dasharray:none;stroke-opacity:1"
         transform="matrix(0.13333333,0,0,-0.13333333,0,666.66667)" />
      <path
         id="path110"
         d="M 1769.87,1773.45 V 1349.71"
         style="fill:none;stroke:#373a50;stroke-width:12.8408;stroke-linecap:round;stroke-linejoin:round;stroke-miterlimit:10;stroke-dasharray:none;stroke-opacity:1"
         transform="matrix(0.13333333,0,0,-0.13333333,0,666.66667)" />
      <path
         id="path111"
         d="M 1852.49,1773.45 V 1349.71"
         style="fill:none;stroke:#373a50;stroke-width:12.8408;stroke-linecap:round;stroke-linejoin:round;stroke-miterlimit:10;stroke-dasharray:none;stroke-opacity:1"
         transform="matrix(0.13333333,0,0,-0.13333333,0,666.66667)" />
      <path
         id="path112"
         d="M 1935.08,1773.45 V 1349.71"
         style="fill:none;stroke:#373a50;stroke-width:12.8408;stroke-linecap:round;stroke-linejoin:round;stroke-miterlimit:10;stroke-dasharray:none;stroke-opacity:1"
         transform="matrix(0.13333333,0,0,-0.13333333,0,666.66667)" />
      <path
         id="path113"
         d="M 2017.7,1773.45 V 1349.71"
         style="fill:none;stroke:#373a50;stroke-width:12.8408;stroke-linecap:round;stroke-linejoin:round;stroke-miterlimit:10;stroke-dasharray:none;stroke-opacity:1"
         transform="matrix(0.13333333,0,0,-0.13333333,0,666.66667)" />
      <path
         id="path114"
         d="M 2100.3,1773.45 V 1349.71"
         style="fill:none;stroke:#373a50;stroke-width:12.8408;stroke-linecap:round;stroke-linejoin:round;stroke-miterlimit:10;stroke-dasharray:none;stroke-opacity:1"
         transform="matrix(0.13333333,0,0,-0.13333333,0,666.66667)" />
      <path
         id="path115"
         d="M 2182.92,1773.45 V 1349.71"
         style="fill:none;stroke:#373a50;stroke-width:12.8408;stroke-linecap:round;stroke-linejoin:round;stroke-miterlimit:10;stroke-dasharray:none;stroke-opacity:1"
         transform="matrix(0.13333333,0,0,-0.13333333,0,666.66667)" />
      <path
         id="path116"
         d="M 2265.53,1773.45 V 1349.71"
         style="fill:none;stroke:#373a50;stroke-width:12.8408;stroke-linecap:round;stroke-linejoin:round;stroke-miterlimit:10;stroke-dasharray:none;stroke-opacity:1"
         transform="matrix(0.13333333,0,0,-0.13333333,0,666.66667)" />
      <path
         id="path117"
         d="M 2348.13,1773.45 V 1349.71"
         style="fill:none;stroke:#373a50;stroke-width:12.8408;stroke-linecap:round;stroke-linejoin:round;stroke-miterlimit:10;stroke-dasharray:none;stroke-opacity:1"
         transform="matrix(0.13333333,0,0,-0.13333333,0,666.66667)" />
      <path
         id="path118"
         d="M 2430.73,1773.45 V 1349.71"
         style="fill:none;stroke:#373a50;stroke-width:12.8408;stroke-linecap:round;stroke-linejoin:round;stroke-miterlimit:10;stroke-dasharray:none;stroke-opacity:1"
         transform="matrix(0.13333333,0,0,-0.13333333,0,666.66667)" />
      <path
         id="path119"
         d="M 2513.35,1773.45 V 1349.71"
         style="fill:none;stroke:#373a50;stroke-width:12.8408;stroke-linecap:round;stroke-linejoin:round;stroke-miterlimit:10;stroke-dasharray:none;stroke-opacity:1"
         transform="matrix(0.13333333,0,0,-0.13333333,0,666.66667)" />
      <path
         id="path120"
         d="m 1336.28,1776.28 h 246.65"
         style="fill:none;stroke:#373a50;stroke-width:12.8408;stroke-linecap:round;stroke-linejoin:round;stroke-miterlimit:10;stroke-dasharray:none;stroke-opacity:1"
         transform="matrix(0.13333333,0,0,-0.13333333,0,666.66667)" />
      <path
         id="path121"
         d="m 2931.74,1776.28 h -284.1"
         style="fill:none;stroke:#373a50;stroke-width:12.8408;stroke-linecap:round;stroke-linejoin:round;stroke-miterlimit:10;stroke-dasharray:none;stroke-opacity:1"
         transform="matrix(0.13333333,0,0,-0.13333333,0,666.66667)" />
      <path
         id="path122"
         d="M 1467.9,1872.59 H 2625.17"
         style="fill:none;stroke:#373a50;stroke-width:12.8408;stroke-linecap:round;stroke-linejoin:round;stroke-miterlimit:10;stroke-dasharray:none;stroke-opacity:1"
         transform="matrix(0.13333333,0,0,-0.13333333,0,666.66667)" />
      <path
         id="path123"
         d="m 2732.71,2215 c -117.27,-29.29 -356.32,-49.36 -632.41,-49.36 -145.36,0 -280.45,5.57 -392.9,15.1"
         style="fill:none;stroke:#373a50;stroke-width:12.8408;stroke-linecap:round;stroke-linejoin:round;stroke-miterlimit:10;stroke-dasharray:none;stroke-opacity:1"
         transform="matrix(0.13333333,0,0,-0.13333333,0,666.66667)" />
      <path
         id="path124"
         d="M 2100.3,2320.28 V 2252.3"
         style="fill:none;stroke:#373a50;stroke-width:12.8408;stroke-linecap:round;stroke-linejoin:round;stroke-miterlimit:10;stroke-dasharray:none;stroke-opacity:1"
         transform="matrix(0.13333333,0,0,-0.13333333,0,666.66667)" />
      <path
         id="path125"
         d="m 4105.13,1346.85 454.18,541.68 488.51,-541.68 z"
         style="fill:#16181e;fill-opacity:1;fill-rule:nonzero;stroke:none"
         transform="matrix(0.13333333,0,0,-0.13333333,0,666.66667)" />
      <path
         id="path126"
         d="M 4555.48,1841.89 4312.41,1346.85"
         style="fill:none;stroke:#373a50;stroke-width:12.947;stroke-linecap:round;stroke-linejoin:round;stroke-miterlimit:10;stroke-dasharray:none;stroke-opacity:1"
         transform="matrix(0.13333333,0,0,-0.13333333,0,666.66667)" />
      <path
         id="path127"
         d="m 4587.91,1434.67 h 380.66"
         style="fill:none;stroke:#373a50;stroke-width:12.947;stroke-linecap:round;stroke-linejoin:round;stroke-miterlimit:10;stroke-dasharray:none;stroke-opacity:1"
         transform="matrix(0.13333333,0,0,-0.13333333,0,666.66667)" />
      <path
         id="path128"
         d="m 4404.43,1534.24 h 303.7"
         style="fill:none;stroke:#373a50;stroke-width:12.947;stroke-linecap:round;stroke-linejoin:round;stroke-miterlimit:10;stroke-dasharray:none;stroke-opacity:1"
         transform="matrix(0.13333333,0,0,-0.13333333,0,666.66667)" />
      <path
         id="path129"
         d="m 4587.91,1703.07 h 138.61"
         style="fill:none;stroke:#373a50;stroke-width:12.947;stroke-linecap:round;stroke-linejoin:round;stroke-miterlimit:10;stroke-dasharray:none;stroke-opacity:1"
         transform="matrix(0.13333333,0,0,-0.13333333,0,666.66667)" />
      <path
         id="path130"
         d="m 3343.7,2733.66 h 209.73 c 0,0 359.54,-149.84 753.33,-124.15 V 1346.85 H 3343.7 v 1386.81"
         style="fill:#16181e;fill-opacity:1;fill-rule:nonzero;stroke:none"
         transform="matrix(0.13333333,0,0,-0.13333333,0,666.66667)" />
      <path
         id="path131"
         d="m 3553.43,2575.9 c 0,0 359.54,-149.84 753.33,-124.15"
         style="fill:none;stroke:#373a50;stroke-width:12.8408;stroke-linecap:round;stroke-linejoin:round;stroke-miterlimit:10;stroke-dasharray:none;stroke-opacity:1"
         transform="matrix(0.13333333,0,0,-0.13333333,0,666.66667)" />
      <path
         id="path132"
         d="m 3553.43,2418.15 c 0,0 359.54,-149.84 753.33,-124.16"
         style="fill:none;stroke:#373a50;stroke-width:12.8408;stroke-linecap:round;stroke-linejoin:round;stroke-miterlimit:10;stroke-dasharray:none;stroke-opacity:1"
         transform="matrix(0.13333333,0,0,-0.13333333,0,666.66667)" />
      <path
         id="path133"
         d="m 3553.43,2260.39 c 0,0 359.54,-149.82 753.33,-124.14"
         style="fill:none;stroke:#373a50;stroke-width:12.8408;stroke-linecap:round;stroke-linejoin:round;stroke-miterlimit:10;stroke-dasharray:none;stroke-opacity:1"
         transform="matrix(0.13333333,0,0,-0.13333333,0,666.66667)" />
      <path
         id="path134"
         d="m 3553.43,2102.65 c 0,0 359.54,-149.83 753.33,-124.14"
         style="fill:none;stroke:#373a50;stroke-width:12.8408;stroke-linecap:round;stroke-linejoin:round;stroke-miterlimit:10;stroke-dasharray:none;stroke-opacity:1"
         transform="matrix(0.13333333,0,0,-0.13333333,0,666.66667)" />
      <path
         id="path135"
         d="m 3553.43,1944.9 c 0,0 359.54,-149.83 753.33,-124.15"
         style="fill:none;stroke:#373a50;stroke-width:12.8408;stroke-linecap:round;stroke-linejoin:round;stroke-miterlimit:10;stroke-dasharray:none;stroke-opacity:1"
         transform="matrix(0.13333333,0,0,-0.13333333,0,666.66667)" />
      <path
         id="path136"
         d="M 3553.43,2733.66 V 1561.58"
         style="fill:none;stroke:#373a50;stroke-width:12.8408;stroke-linecap:round;stroke-linejoin:round;stroke-miterlimit:10;stroke-dasharray:none;stroke-opacity:1"
         transform="matrix(0.13333333,0,0,-0.13333333,0,666.66667)" />
      <path
         id="path137"
         d="m 3343.7,1561.58 h 963.06"
         style="fill:none;stroke:#373a50;stroke-width:12.8408;stroke-linecap:round;stroke-linejoin:round;stroke-miterlimit:10;stroke-dasharray:none;stroke-opacity:1"
         transform="matrix(0.13333333,0,0,-0.13333333,0,666.66667)" />
      <path
         id="path138"
         d="m 179.824,1346.85 v 1219.64 c 0,0 734.512,-195.12 1021.806,-200.56 V 1346.85 H 179.824"
         style="fill:#16181e;fill-opacity:1;fill-rule:nonzero;stroke:none"
         transform="matrix(0.13333333,0,0,-0.13333333,0,666.66667)" />
      <path
         id="path139"
         d="M 179.824,2203.54 H 1201.63"
         style="fill:none;stroke:#373a50;stroke-width:12.8408;stroke-linecap:round;stroke-linejoin:round;stroke-miterlimit:10;stroke-dasharray:none;stroke-opacity:1"
         transform="matrix(0.13333333,0,0,-0.13333333,0,666.66667)" />
      <path
         id="path140"
         d="M 179.824,2098 H 1201.63"
         style="fill:none;stroke:#373a50;stroke-width:12.8408;stroke-linecap:round;stroke-linejoin:round;stroke-miterlimit:10;stroke-dasharray:none;stroke-opacity:1"
         transform="matrix(0.13333333,0,0,-0.13333333,0,666.66667)" />
      <path
         id="path141"
         d="M 179.824,1992.41 H 1201.63"
         style="fill:none;stroke:#373a50;stroke-width:12.8408;stroke-linecap:round;stroke-linejoin:round;stroke-miterlimit:10;stroke-dasharray:none;stroke-opacity:1"
         transform="matrix(0.13333333,0,0,-0.13333333,0,666.66667)" />
      <path
         id="path142"
         d="M 179.824,1886.87 H 1201.63"
         style="fill:none;stroke:#373a50;stroke-width:12.8408;stroke-linecap:round;stroke-linejoin:round;stroke-miterlimit:10;stroke-dasharray:none;stroke-opacity:1"
         transform="matrix(0.13333333,0,0,-0.13333333,0,666.66667)" />
      <path
         id="path143"
         d="M 179.824,1781.3 H 1201.63"
         style="fill:none;stroke:#373a50;stroke-width:12.8408;stroke-linecap:round;stroke-linejoin:round;stroke-miterlimit:10;stroke-dasharray:none;stroke-opacity:1"
         transform="matrix(0.13333333,0,0,-0.13333333,0,666.66667)" />
      <path
         id="path144"
         d="M 179.824,1675.76 H 1201.63"
         style="fill:none;stroke:#373a50;stroke-width:12.8408;stroke-linecap:round;stroke-linejoin:round;stroke-miterlimit:10;stroke-dasharray:none;stroke-opacity:1"
         transform="matrix(0.13333333,0,0,-0.13333333,0,666.66667)" />
      <path
         id="path145"
         d="M 179.824,1570.18 H 1201.63"
         style="fill:none;stroke:#373a50;stroke-width:12.8408;stroke-linecap:round;stroke-linejoin:round;stroke-miterlimit:10;stroke-dasharray:none;stroke-opacity:1"
         transform="matrix(0.13333333,0,0,-0.13333333,0,666.66667)" />
      <path
         id="path146"
         d="M 179.824,1464.64 H 1201.63"
         style="fill:none;stroke:#373a50;stroke-width:12.8408;stroke-linecap:round;stroke-linejoin:round;stroke-miterlimit:10;stroke-dasharray:none;stroke-opacity:1"
         transform="matrix(0.13333333,0,0,-0.13333333,0,666.66667)" />
      <path
         id="path147"
         d="m 2983.23,2841.41 55.85,-142 h 184.05 l 57.79,134.82 c -147.68,83.48 -297.69,7.18 -297.69,7.18"
         style="fill:#16181e;fill-opacity:1;fill-rule:nonzero;stroke:none"
         transform="matrix(0.13333333,0,0,-0.13333333,0,666.66667)" />
      <path
         id="path148"
         d="m 3040.14,2836.25 c 0,-11.54 1.38,-22.52 3.36,-33.19 h 179.49 c 1.97,10.67 3.35,21.65 3.35,33.19 0,44.83 -15.93,84.31 -40.12,108.06 h -105.95 c -24.2,-23.75 -40.13,-63.23 -40.13,-108.06"
         style="fill:#16181e;fill-opacity:1;fill-rule:nonzero;stroke:none"
         transform="matrix(0.13333333,0,0,-0.13333333,0,666.66667)" />
      <path
         id="path149"
         d="m 3146.08,2928.38 h -25.68 v 436.6 h 25.68 v -436.6"
         style="fill:#16181e;fill-opacity:1;fill-rule:nonzero;stroke:none"
         transform="matrix(0.13333333,0,0,-0.13333333,0,666.66667)" />
      <path
         id="path150"
         d="m 3291.61,1346.85 h -303.89 v 51.36 h 303.89 v -51.36"
         style="fill:#16181e;fill-opacity:1;fill-rule:nonzero;stroke:none"
         transform="matrix(0.13333333,0,0,-0.13333333,0,666.66667)" />
      <path
         id="path151"
         d="m 3188.91,2187.9 c -14.97,303.9 46,481.55 46,481.55 l -33.16,29.96 h -64.22 -64.22 l -33.17,-29.96 c 0,0 60.99,-177.65 46.01,-481.55 -14.97,-303.89 -74.89,-789.69 -74.89,-789.69 h 40.12 l 49.76,451.55 h 20.87 v -451.55 h 15.52 11.77 v 451.55 h 20.87 l 49.74,-451.55 h 43.89 c 0,0 -59.91,485.8 -74.89,789.69"
         style="fill:#16181e;fill-opacity:1;fill-rule:nonzero;stroke:none"
         transform="matrix(0.13333333,0,0,-0.13333333,0,666.66667)" />
      <path
         id="path152"
         d="m 3280.92,2834.23 c -147.68,83.48 -297.69,7.18 -297.69,7.18"
         style="fill:none;stroke:#373a50;stroke-width:12.8408;stroke-linecap:round;stroke-linejoin:round;stroke-miterlimit:10;stroke-dasharray:none;stroke-opacity:1"
         transform="matrix(0.13333333,0,0,-0.13333333,0,666.66667)" />
      <path
         id="path153"
         d="m 3080.27,2944.31 h 105.95"
         style="fill:none;stroke:#373a50;stroke-width:12.8408;stroke-linecap:round;stroke-linejoin:round;stroke-miterlimit:10;stroke-dasharray:none;stroke-opacity:1"
         transform="matrix(0.13333333,0,0,-0.13333333,0,666.66667)" />
      <path
         id="path154"
         d="m 3054.51,2699.41 h 159.45"
         style="fill:none;stroke:#373a50;stroke-width:12.8408;stroke-linecap:round;stroke-linejoin:round;stroke-miterlimit:10;stroke-dasharray:none;stroke-opacity:1"
         transform="matrix(0.13333333,0,0,-0.13333333,0,666.66667)" />
      <path
         id="path155"
         d="m 3071.64,2665.65 h 130.57"
         style="fill:none;stroke:#373a50;stroke-width:12.8408;stroke-linecap:round;stroke-linejoin:round;stroke-miterlimit:10;stroke-dasharray:none;stroke-opacity:1"
         transform="matrix(0.13333333,0,0,-0.13333333,0,666.66667)" />
      <path
         id="path156"
         d="m 3003.7,1398.21 h 269.65"
         style="fill:none;stroke:#373a50;stroke-width:12.8408;stroke-linecap:round;stroke-linejoin:round;stroke-miterlimit:10;stroke-dasharray:none;stroke-opacity:1"
         transform="matrix(0.13333333,0,0,-0.13333333,0,666.66667)" />
      <path
         id="path157"
         d="M 3139.67,2665.65 V 2132.76"
         style="fill:none;stroke:#373a50;stroke-width:12.8408;stroke-linecap:round;stroke-linejoin:round;stroke-miterlimit:10;stroke-dasharray:none;stroke-opacity:1"
         transform="matrix(0.13333333,0,0,-0.13333333,0,666.66667)" />
      <path
         id="path158"
         d="m 5924.22,1346.85 h -324.86 v 1181.57 h 324.86 V 1346.85"
         style="fill:#16181e;fill-opacity:1;fill-rule:nonzero;stroke:none"
         transform="matrix(0.13333333,0,0,-0.13333333,0,666.66667)" />
      <path
         id="path159"
         d="M 5949.87,2499.57 H 5573.7 v 145.32 h 376.17 v -145.32"
         style="fill:#16181e;fill-opacity:1;fill-rule:nonzero;stroke:none"
         transform="matrix(0.13333333,0,0,-0.13333333,0,666.66667)" />
      <path
         id="path160"
         d="M 5817.35,2617.11 H 5706.2 v 145.34 h 111.15 v -145.34"
         style="fill:#16181e;fill-opacity:1;fill-rule:nonzero;stroke:none"
         transform="matrix(0.13333333,0,0,-0.13333333,0,666.66667)" />
      <path
         id="path161"
         d="m 5612.59,2617.11 h -17.63 v 72.68 h 17.63 v -72.68"
         style="fill:#16181e;fill-opacity:1;fill-rule:nonzero;stroke:none"
         transform="matrix(0.13333333,0,0,-0.13333333,0,666.66667)" />
      <path
         id="path162"
         d="m 5928.63,2617.11 h -17.64 v 72.68 h 17.64 v -72.68"
         style="fill:#16181e;fill-opacity:1;fill-rule:nonzero;stroke:none"
         transform="matrix(0.13333333,0,0,-0.13333333,0,666.66667)" />
      <path
         id="path163"
         d="m 5884.02,2617.11 h -44.09 v 55.05 h 44.09 v -55.05"
         style="fill:#16181e;fill-opacity:1;fill-rule:nonzero;stroke:none"
         transform="matrix(0.13333333,0,0,-0.13333333,0,666.66667)" />
      <path
         id="path164"
         d="m 5683.64,2617.11 h -44.07 v 55.05 h 44.07 v -55.05"
         style="fill:#16181e;fill-opacity:1;fill-rule:nonzero;stroke:none"
         transform="matrix(0.13333333,0,0,-0.13333333,0,666.66667)" />
      <path
         id="path165"
         d="m 5573.7,2499.57 h 296.6"
         style="fill:none;stroke:#373a50;stroke-width:12.947;stroke-linecap:round;stroke-linejoin:round;stroke-miterlimit:10;stroke-dasharray:none;stroke-opacity:1"
         transform="matrix(0.13333333,0,0,-0.13333333,0,666.66667)" />
      <path
         id="path166"
         d="m 5661.59,2644.64 h 288.28"
         style="fill:none;stroke:#373a50;stroke-width:12.947;stroke-linecap:round;stroke-linejoin:round;stroke-miterlimit:10;stroke-dasharray:none;stroke-opacity:1"
         transform="matrix(0.13333333,0,0,-0.13333333,0,666.66667)" />
      <path
         id="path167"
         d="M 5672.83,2400.7 V 1346.85"
         style="fill:none;stroke:#373a50;stroke-width:12.947;stroke-linecap:round;stroke-linejoin:round;stroke-miterlimit:10;stroke-dasharray:none;stroke-opacity:1"
         transform="matrix(0.13333333,0,0,-0.13333333,0,666.66667)" />
      <path
         id="path168"
         d="M 5761.79,2400.7 V 1346.85"
         style="fill:none;stroke:#373a50;stroke-width:12.947;stroke-linecap:round;stroke-linejoin:round;stroke-miterlimit:10;stroke-dasharray:none;stroke-opacity:1"
         transform="matrix(0.13333333,0,0,-0.13333333,0,666.66667)" />
      <path
         id="path169"
         d="M 5850.73,2400.7 V 1346.85"
         style="fill:none;stroke:#373a50;stroke-width:12.947;stroke-linecap:round;stroke-linejoin:round;stroke-miterlimit:10;stroke-dasharray:none;stroke-opacity:1"
         transform="matrix(0.13333333,0,0,-0.13333333,0,666.66667)" />
      <path
         id="path170"
         d="M 6420.66,1346.85 H 6095.8 v 1181.57 h 324.86 V 1346.85"
         style="fill:#16181e;fill-opacity:1;fill-rule:nonzero;stroke:none"
         transform="matrix(0.13333333,0,0,-0.13333333,0,666.66667)" />
      <path
         id="path171"
         d="m 6446.32,2499.57 h -376.17 v 145.32 h 376.17 v -145.32"
         style="fill:#16181e;fill-opacity:1;fill-rule:nonzero;stroke:none"
         transform="matrix(0.13333333,0,0,-0.13333333,0,666.66667)" />
      <path
         id="path172"
         d="m 6313.8,2617.11 h -111.15 v 145.34 h 111.15 v -145.34"
         style="fill:#16181e;fill-opacity:1;fill-rule:nonzero;stroke:none"
         transform="matrix(0.13333333,0,0,-0.13333333,0,666.66667)" />
      <path
         id="path173"
         d="m 6109.03,2617.11 h -17.64 v 72.68 h 17.64 v -72.68"
         style="fill:#16181e;fill-opacity:1;fill-rule:nonzero;stroke:none"
         transform="matrix(0.13333333,0,0,-0.13333333,0,666.66667)" />
      <path
         id="path174"
         d="m 6425.08,2617.11 h -17.65 v 72.68 h 17.65 v -72.68"
         style="fill:#16181e;fill-opacity:1;fill-rule:nonzero;stroke:none"
         transform="matrix(0.13333333,0,0,-0.13333333,0,666.66667)" />
      <path
         id="path175"
         d="m 6380.45,2617.11 h -44.07 v 55.05 h 44.07 v -55.05"
         style="fill:#16181e;fill-opacity:1;fill-rule:nonzero;stroke:none"
         transform="matrix(0.13333333,0,0,-0.13333333,0,666.66667)" />
      <path
         id="path176"
         d="m 6180.09,2617.11 h -44.07 v 55.05 h 44.07 v -55.05"
         style="fill:#16181e;fill-opacity:1;fill-rule:nonzero;stroke:none"
         transform="matrix(0.13333333,0,0,-0.13333333,0,666.66667)" />
      <path
         id="path177"
         d="m 6070.15,2499.57 h 296.58"
         style="fill:none;stroke:#373a50;stroke-width:12.947;stroke-linecap:round;stroke-linejoin:round;stroke-miterlimit:10;stroke-dasharray:none;stroke-opacity:1"
         transform="matrix(0.13333333,0,0,-0.13333333,0,666.66667)" />
      <path
         id="path178"
         d="m 6158.04,2644.64 h 288.28"
         style="fill:none;stroke:#373a50;stroke-width:12.947;stroke-linecap:round;stroke-linejoin:round;stroke-miterlimit:10;stroke-dasharray:none;stroke-opacity:1"
         transform="matrix(0.13333333,0,0,-0.13333333,0,666.66667)" />
      <path
         id="path179"
         d="M 6169.27,2400.7 V 1346.85"
         style="fill:none;stroke:#373a50;stroke-width:12.947;stroke-linecap:round;stroke-linejoin:round;stroke-miterlimit:10;stroke-dasharray:none;stroke-opacity:1"
         transform="matrix(0.13333333,0,0,-0.13333333,0,666.66667)" />
      <path
         id="path180"
         d="M 6258.21,2400.7 V 1346.85"
         style="fill:none;stroke:#373a50;stroke-width:12.947;stroke-linecap:round;stroke-linejoin:round;stroke-miterlimit:10;stroke-dasharray:none;stroke-opacity:1"
         transform="matrix(0.13333333,0,0,-0.13333333,0,666.66667)" />
      <path
         id="path181"
         d="M 6347.18,2400.7 V 1346.85"
         style="fill:none;stroke:#373a50;stroke-width:12.9443;stroke-linecap:round;stroke-linejoin:round;stroke-miterlimit:10;stroke-dasharray:none;stroke-opacity:1"
         transform="matrix(0.13333333,0,0,-0.13333333,0,666.66667)" />
      <path
         id="path182"
         d="m 5254.47,2238.48 h -145.06 v 41.25 h 145.06 v -41.25"
         style="fill:#16181e;fill-opacity:1;fill-rule:nonzero;stroke:none"
         transform="matrix(0.13333333,0,0,-0.13333333,0,666.66667)" />
      <path
         id="path183"
         d="m 5121.53,1346.85 h -30.91 v 942.57 h 30.91 v -942.57"
         style="fill:#16181e;fill-opacity:1;fill-rule:nonzero;stroke:none"
         transform="matrix(0.13333333,0,0,-0.13333333,0,666.66667)" />
      <path
         id="path184"
         d="m 5080.16,1372.78 h 51.85 v -25.93 h -51.85 v 25.93"
         style="fill:#16181e;fill-opacity:1;fill-rule:nonzero;stroke:none"
         transform="matrix(0.13333333,0,0,-0.13333333,0,666.66667)" />
      <path
         id="path185"
         d="m 5275.84,1346.85 h -30.94 v 942.57 h 30.94 v -942.57"
         style="fill:#16181e;fill-opacity:1;fill-rule:nonzero;stroke:none"
         transform="matrix(0.13333333,0,0,-0.13333333,0,666.66667)" />
      <path
         id="path186"
         d="m 5234.44,1372.78 h 51.88 v -25.93 h -51.88 v 25.93"
         style="fill:#16181e;fill-opacity:1;fill-rule:nonzero;stroke:none"
         transform="matrix(0.13333333,0,0,-0.13333333,0,666.66667)" />
      <path
         id="path187"
         d="m 5183.44,2105.38 -356.68,-173.63 356.68,-173.66 356.61,173.66 -356.61,173.63"
         style="fill:#ffffff;fill-opacity:1;fill-rule:nonzero;stroke:none"
         transform="matrix(0.13333333,0,0,-0.13333333,0,666.66667)" />
      <path
         id="path188"
         d="m 4857.64,1931.75 325.8,-158.63 325.75,158.63 -325.75,158.6 z m 325.8,-187.18 c -2.04,0 -4.06,0.45 -5.93,1.36 l -356.65,173.65 c -4.68,2.28 -7.61,6.97 -7.61,12.17 0,5.16 2.93,9.87 7.61,12.14 l 356.65,173.65 c 3.72,1.83 8.09,1.83 11.83,0 l 356.64,-173.65 c 4.65,-2.27 7.59,-6.98 7.59,-12.14 0,-5.2 -2.94,-9.89 -7.59,-12.17 l -356.64,-173.65 c -1.86,-0.91 -3.9,-1.36 -5.9,-1.36"
         style="fill:#16181e;fill-opacity:1;fill-rule:nonzero;stroke:none"
         transform="matrix(0.13333333,0,0,-0.13333333,0,666.66667)" />
      <path
         id="path189"
         d="m 5005.79,2008.63 c 0,-19.63 -15.91,-35.52 -35.54,-35.52 -19.61,0 -35.51,15.89 -35.51,35.52 0,19.62 15.9,35.5 35.51,35.5 19.63,0 35.54,-15.88 35.54,-35.5"
         style="fill:#ffffff;fill-opacity:1;fill-rule:nonzero;stroke:none"
         transform="matrix(0.13333333,0,0,-0.13333333,0,666.66667)" />
      <path
         id="path190"
         d="m 5005.79,2008.63 c 0,-19.63 -15.91,-35.52 -35.54,-35.52 -19.61,0 -35.51,15.89 -35.51,35.52 0,19.62 15.9,35.5 35.51,35.5 19.63,0 35.54,-15.88 35.54,-35.5 z"
         style="fill:none;stroke:#16181e;stroke-width:12.9443;stroke-linecap:butt;stroke-linejoin:miter;stroke-miterlimit:10;stroke-dasharray:none;stroke-opacity:1"
         transform="matrix(0.13333333,0,0,-0.13333333,0,666.66667)" />
      <path
         id="path191"
         d="m 5076.83,2008.63 c 0,-19.63 -15.89,-35.52 -35.5,-35.52 -19.65,0 -35.54,15.89 -35.54,35.52 0,19.62 15.89,35.5 35.54,35.5 19.61,0 35.5,-15.88 35.5,-35.5"
         style="fill:#ffffff;fill-opacity:1;fill-rule:nonzero;stroke:none"
         transform="matrix(0.13333333,0,0,-0.13333333,0,666.66667)" />
      <path
         id="path192"
         d="m 5076.83,2008.63 c 0,-19.63 -15.89,-35.52 -35.5,-35.52 -19.65,0 -35.54,15.89 -35.54,35.52 0,19.62 15.89,35.5 35.54,35.5 19.61,0 35.5,-15.88 35.5,-35.5 z"
         style="fill:none;stroke:#16181e;stroke-width:12.9443;stroke-linecap:butt;stroke-linejoin:miter;stroke-miterlimit:10;stroke-dasharray:none;stroke-opacity:1"
         transform="matrix(0.13333333,0,0,-0.13333333,0,666.66667)" />
      <path
         id="path193"
         d="m 5147.88,2008.63 c 0,-19.63 -15.89,-35.52 -35.52,-35.52 -19.61,0 -35.53,15.89 -35.53,35.52 0,19.62 15.92,35.5 35.53,35.5 19.63,0 35.52,-15.88 35.52,-35.5"
         style="fill:#ffffff;fill-opacity:1;fill-rule:nonzero;stroke:none"
         transform="matrix(0.13333333,0,0,-0.13333333,0,666.66667)" />
      <path
         id="path194"
         d="m 5147.88,2008.63 c 0,-19.63 -15.89,-35.52 -35.52,-35.52 -19.61,0 -35.53,15.89 -35.53,35.52 0,19.62 15.92,35.5 35.53,35.5 19.63,0 35.52,-15.88 35.52,-35.5 z"
         style="fill:none;stroke:#16181e;stroke-width:12.9443;stroke-linecap:butt;stroke-linejoin:miter;stroke-miterlimit:10;stroke-dasharray:none;stroke-opacity:1"
         transform="matrix(0.13333333,0,0,-0.13333333,0,666.66667)" />
      <path
         id="path195"
         d="m 5218.94,2008.63 c 0,-19.63 -15.91,-35.52 -35.5,-35.52 -19.65,0 -35.56,15.89 -35.56,35.52 0,19.62 15.91,35.5 35.56,35.5 19.59,0 35.5,-15.88 35.5,-35.5"
         style="fill:#ffffff;fill-opacity:1;fill-rule:nonzero;stroke:none"
         transform="matrix(0.13333333,0,0,-0.13333333,0,666.66667)" />
      <path
         id="path196"
         d="m 5218.94,2008.63 c 0,-19.63 -15.91,-35.52 -35.5,-35.52 -19.65,0 -35.56,15.89 -35.56,35.52 0,19.62 15.91,35.5 35.56,35.5 19.59,0 35.5,-15.88 35.5,-35.5 z"
         style="fill:none;stroke:#16181e;stroke-width:12.9443;stroke-linecap:butt;stroke-linejoin:miter;stroke-miterlimit:10;stroke-dasharray:none;stroke-opacity:1"
         transform="matrix(0.13333333,0,0,-0.13333333,0,666.66667)" />
      <path
         id="path197"
         d="m 5289.98,2008.63 c 0,-19.63 -15.9,-35.52 -35.51,-35.52 -19.62,0 -35.53,15.89 -35.53,35.52 0,19.62 15.91,35.5 35.53,35.5 19.61,0 35.51,-15.88 35.51,-35.5"
         style="fill:#ffffff;fill-opacity:1;fill-rule:nonzero;stroke:none"
         transform="matrix(0.13333333,0,0,-0.13333333,0,666.66667)" />
      <path
         id="path198"
         d="m 5289.98,2008.63 c 0,-19.63 -15.9,-35.52 -35.51,-35.52 -19.62,0 -35.53,15.89 -35.53,35.52 0,19.62 15.91,35.5 35.53,35.5 19.61,0 35.51,-15.88 35.51,-35.5 z"
         style="fill:none;stroke:#16181e;stroke-width:12.9443;stroke-linecap:butt;stroke-linejoin:miter;stroke-miterlimit:10;stroke-dasharray:none;stroke-opacity:1"
         transform="matrix(0.13333333,0,0,-0.13333333,0,666.66667)" />
      <path
         id="path199"
         d="m 5361.02,2008.63 c 0,-19.63 -15.88,-35.52 -35.5,-35.52 -19.63,0 -35.54,15.89 -35.54,35.52 0,19.62 15.91,35.5 35.54,35.5 19.62,0 35.5,-15.88 35.5,-35.5"
         style="fill:#ffffff;fill-opacity:1;fill-rule:nonzero;stroke:none"
         transform="matrix(0.13333333,0,0,-0.13333333,0,666.66667)" />
      <path
         id="path200"
         d="m 5361.02,2008.63 c 0,-19.63 -15.88,-35.52 -35.5,-35.52 -19.63,0 -35.54,15.89 -35.54,35.52 0,19.62 15.91,35.5 35.54,35.5 19.62,0 35.5,-15.88 35.5,-35.5 z"
         style="fill:none;stroke:#16181e;stroke-width:12.9443;stroke-linecap:butt;stroke-linejoin:miter;stroke-miterlimit:10;stroke-dasharray:none;stroke-opacity:1"
         transform="matrix(0.13333333,0,0,-0.13333333,0,666.66667)" />
      <path
         id="path201"
         d="m 5432.07,2008.63 c 0,-19.63 -15.89,-35.52 -35.5,-35.52 -19.61,0 -35.55,15.89 -35.55,35.52 0,19.62 15.94,35.5 35.55,35.5 19.61,0 35.5,-15.88 35.5,-35.5"
         style="fill:#ffffff;fill-opacity:1;fill-rule:nonzero;stroke:none"
         transform="matrix(0.13333333,0,0,-0.13333333,0,666.66667)" />
      <path
         id="path202"
         d="m 5432.07,2008.63 c 0,-19.63 -15.89,-35.52 -35.5,-35.52 -19.61,0 -35.55,15.89 -35.55,35.52 0,19.62 15.94,35.5 35.55,35.5 19.61,0 35.5,-15.88 35.5,-35.5 z"
         style="fill:none;stroke:#16181e;stroke-width:12.9443;stroke-linecap:butt;stroke-linejoin:miter;stroke-miterlimit:10;stroke-dasharray:none;stroke-opacity:1"
         transform="matrix(0.13333333,0,0,-0.13333333,0,666.66667)" />
      <path
         id="path203"
         d="m 5183.44,2243.07 -11.25,-68.85 11.25,-68.84 11.21,68.84 -11.21,68.85"
         style="fill:#16181e;fill-opacity:1;fill-rule:nonzero;stroke:none"
         transform="matrix(0.13333333,0,0,-0.13333333,0,666.66667)" />
      <path
         id="path204"
         d="m 5114.58,2174.23 68.88,-11.23 68.79,11.23 -68.79,11.22 -68.88,-11.22"
         style="fill:#16181e;fill-opacity:1;fill-rule:nonzero;stroke:none"
         transform="matrix(0.13333333,0,0,-0.13333333,0,666.66667)" />
      <path
         id="path205"
         d="m 5158.55,2199.1 20.83,-28.93 28.89,-20.81 -20.79,28.9 -28.93,20.84"
         style="fill:#16181e;fill-opacity:1;fill-rule:nonzero;stroke:none"
         transform="matrix(0.13333333,0,0,-0.13333333,0,666.66667)" />
      <path
         id="path206"
         d="m 5158.55,2149.36 28.93,20.82 20.83,28.91 -28.93,-20.81 -20.83,-28.92"
         style="fill:#16181e;fill-opacity:1;fill-rule:nonzero;stroke:none"
         transform="matrix(0.13333333,0,0,-0.13333333,0,666.66667)" />
      <path
         id="path207"
         d="M 3.6552969,0.00111953 V -1.3761385 H 1.9795156 V -8.0932918 H 0.36232813 v 8.09441133 z m 1.8134765,0 0.09375,-1.30477083 H 6.5351797 L 6.6523672,0.00111953 H 8.1875234 L 7.4140859,-8.0932918 H 4.6718984 L 3.8867422,0.00111953 Z m 0.515625,-6.71715333 h 0.070312 l 0.3632813,4.119693 H 5.6797109 Z m 6.0878906,6.1372552 c 0.28125,-0.4228424 0.421875,-1.0269029 0.421875,-1.775938 0,-0.3865988 -0.04687,-0.7007102 -0.140625,-0.9664969 -0.09375,-0.2537054 -0.222656,-0.4953296 -0.375,-0.688629 -0.152344,-0.2053806 -0.339844,-0.3745175 -0.515625,-0.5557357 l -0.9375,-0.9060908 c -0.1875,-0.169137 -0.304687,-0.3261927 -0.363281,-0.459086 -0.07031,-0.1328934 -0.09375,-0.2537055 -0.09375,-0.3624364 0,-0.1087309 0.02344,-0.2053806 0.09375,-0.2778678 0.05859,-0.072487 0.152344,-0.1087309 0.28125,-0.1087309 0.105469,0 0.1875,0.024162 0.257812,0.09665 0.05859,0.048325 0.09375,0.1328933 0.09375,0.2537054 v 0.5557357 h 1.652344 c 0,-0.7973599 -0.164062,-1.4014205 -0.46875,-1.8001004 -0.316406,-0.39868 -0.84375,-0.5919794 -1.59375,-0.5919794 -0.5976562,0 -1.0664062,0.1812182 -1.3828124,0.5315733 -0.3164063,0.3745176 -0.4804688,0.8940096 -0.4804688,1.5826386 0,0.6644666 0.2578125,1.2443648 0.8085938,1.7517756 l 0.7265624,0.7007103 c 0.222656,0.1932993 0.386719,0.3745175 0.515625,0.5315732 0.105469,0.1449746 0.1875,0.3020303 0.246094,0.4832485 0.04687,0.1691369 0.07031,0.3745175 0.07031,0.6161417 0,0.1932994 -0.02344,0.3382739 -0.08203,0.4228424 -0.05859,0.084569 -0.152344,0.1328933 -0.304687,0.1328933 -0.140625,0 -0.246094,-0.060406 -0.304688,-0.1570557 -0.05859,-0.1087309 -0.08203,-0.2537054 -0.08203,-0.4470048 V -3.0191832 H 8.5215078 v 0.7852787 c 0,0.7973599 0.1640625,1.38933926 0.4921875,1.75177559 0.3164063,0.37451754 0.8554688,0.5557357 1.5937497,0.5557357 0.691407,0 1.183594,-0.2174618 1.464844,-0.65238539 z m 6.128906,0.57989813 1.007813,-8.10649253 h -1.546875 l -0.527344,5.5211134 -0.597656,-5.5211134 h -1.546875 l 0.996094,8.10649253 z m 4.810547,0 V -1.5694379 H 21.312523 V -3.4299444 H 22.84768 V -4.952177 h -1.535157 v -1.5826386 h 1.605469 v -1.5584762 h -3.246094 v 8.09441133 z m 3.539063,-0.67654782 0.28125,0.67654782 h 0.644531 V -4.7105527 h -1.980469 v 1.3893392 h 0.433594 v 1.1597963 c 0,0.2174618 -0.02344,0.3986799 -0.08203,0.5436545 -0.05859,0.1328933 -0.164063,0.2053805 -0.339844,0.2053805 -0.164063,0 -0.28125,-0.072487 -0.339844,-0.2053805 -0.05859,-0.1449746 -0.08203,-0.3141115 -0.08203,-0.5436545 v -3.9143124 c 0,-0.1570557 0.02344,-0.289949 0.09375,-0.4107611 0.05859,-0.1328934 0.175781,-0.1932994 0.363281,-0.1932994 0.152344,0 0.246094,0.060406 0.292969,0.1812181 0.05859,0.1087309 0.08203,0.2657867 0.08203,0.4349236 v 0.7248727 h 1.582031 c 0,-0.6161418 -0.05859,-1.1235526 -0.175781,-1.5343138 -0.09375,-0.4228424 -0.304687,-0.7490351 -0.597656,-0.9664969 -0.28125,-0.229543 -0.714844,-0.3261927 -1.253906,-0.3261927 -1.324219,0 -1.992188,0.7490351 -1.992188,2.2712677 v 3.4793887 c 0,1.66720715 0.585938,2.48872949 1.734375,2.48872949 0.609375,0 1.054688,-0.25370543 1.335938,-0.74903508 z m 2.932617,0.67654782 0.09375,-1.30477083 h 0.972656 l 0.117188,1.30477083 h 1.535156 L 31.428734,-8.0932918 h -2.742187 l -0.785156,8.09441133 z m 0.515625,-6.71715333 h 0.07031 l 0.363282,4.119693 h -0.738282 z m 6.087891,6.1372552 c 0.28125,-0.4228424 0.421875,-1.0269029 0.421875,-1.775938 0,-0.3865988 -0.04687,-0.7007102 -0.140625,-0.9664969 -0.09375,-0.2537054 -0.222657,-0.4953296 -0.375,-0.688629 -0.152344,-0.2053806 -0.339844,-0.3745175 -0.515625,-0.5557357 l -0.9375,-0.9060908 c -0.1875,-0.169137 -0.304688,-0.3261927 -0.363282,-0.459086 -0.07031,-0.1328934 -0.09375,-0.2537055 -0.09375,-0.3624364 0,-0.1087309 0.02344,-0.2053806 0.09375,-0.2778678 0.05859,-0.072487 0.152344,-0.1087309 0.28125,-0.1087309 0.105469,0 0.1875,0.024162 0.257813,0.09665 0.05859,0.048325 0.09375,0.1328933 0.09375,0.2537054 v 0.5557357 h 1.652344 c 0,-0.7973599 -0.164063,-1.4014205 -0.46875,-1.8001004 -0.316407,-0.39868 -0.84375,-0.5919794 -1.59375,-0.5919794 -0.597657,0 -1.066407,0.1812182 -1.382813,0.5315733 -0.316406,0.3745176 -0.480469,0.8940096 -0.480469,1.5826386 0,0.6644666 0.257813,1.2443648 0.808594,1.7517756 l 0.726563,0.7007103 c 0.222656,0.1932993 0.386718,0.3745175 0.515625,0.5315732 0.105468,0.1449746 0.1875,0.3020303 0.246093,0.4832485 0.04687,0.1691369 0.07031,0.3745175 0.07031,0.6161417 0,0.1932994 -0.02344,0.3382739 -0.08203,0.4228424 -0.05859,0.084569 -0.152344,0.1328933 -0.304688,0.1328933 -0.140625,0 -0.246094,-0.060406 -0.304687,-0.1570557 -0.05859,-0.1087309 -0.08203,-0.2537054 -0.08203,-0.4470048 v -1.0027405 h -1.59375 v 0.7852787 c 0,0.7973599 0.164063,1.38933926 0.492188,1.75177559 0.316406,0.37451754 0.855469,0.5557357 1.59375,0.5557357 0.691406,0 1.183594,-0.2174618 1.464844,-0.65238569 z m 0,0"
         style="fill:#16181e;fill-opacity:1;fill-rule:nonzero;stroke:none"
         aria-label="LAS VEGAS"
         transform="matrix(1.3333333,0,0,1.2933306,666.66533,417.54933)" />
      <path
         id="path208"
         d="m 5076.83,1794.95 44.7,-21.78"
         style="fill:none;stroke:#373a50;stroke-width:12.9443;stroke-linecap:round;stroke-linejoin:round;stroke-miterlimit:10;stroke-dasharray:none;stroke-opacity:1"
         transform="matrix(0.13333333,0,0,-0.13333333,0,666.66667)" />
      <path
         id="path209"
         d="m 5290,1794.95 -44.69,-21.78"
         style="fill:none;stroke:#373a50;stroke-width:12.9443;stroke-linecap:round;stroke-linejoin:round;stroke-miterlimit:10;stroke-dasharray:none;stroke-opacity:1"
         transform="matrix(0.13333333,0,0,-0.13333333,0,666.66667)" />
      <path
         id="path210"
         d="m 5121.53,2090.29 -44.7,-21.75"
         style="fill:none;stroke:#373a50;stroke-width:12.9443;stroke-linecap:round;stroke-linejoin:round;stroke-miterlimit:10;stroke-dasharray:none;stroke-opacity:1"
         transform="matrix(0.13333333,0,0,-0.13333333,0,666.66667)" />
      <path
         id="path211"
         d="m 5244.9,2090.48 48.75,-23.74"
         style="fill:none;stroke:#373a50;stroke-width:12.9443;stroke-linecap:round;stroke-linejoin:round;stroke-miterlimit:10;stroke-dasharray:none;stroke-opacity:1"
         transform="matrix(0.13333333,0,0,-0.13333333,0,666.66667)" />
      <path
         id="path212"
         d="M 5121.53,2259.09 V 2197.6"
         style="fill:none;stroke:#373a50;stroke-width:12.9443;stroke-linecap:round;stroke-linejoin:round;stroke-miterlimit:10;stroke-dasharray:none;stroke-opacity:1"
         transform="matrix(0.13333333,0,0,-0.13333333,0,666.66667)" />
      <path
         id="path213"
         d="M 5244.9,2259.09 V 2197.6"
         style="fill:none;stroke:#373a50;stroke-width:12.9443;stroke-linecap:round;stroke-linejoin:round;stroke-miterlimit:10;stroke-dasharray:none;stroke-opacity:1"
         transform="matrix(0.13333333,0,0,-0.13333333,0,666.66667)" />
      <path
         id="path214"
         d="m 5080.16,1372.78 h 51.85"
         style="fill:none;stroke:#373a50;stroke-width:12.9443;stroke-linecap:round;stroke-linejoin:round;stroke-miterlimit:10;stroke-dasharray:none;stroke-opacity:1"
         transform="matrix(0.13333333,0,0,-0.13333333,0,666.66667)" />
      <path
         id="path215"
         d="m 5234.44,1372.78 h 51.86"
         style="fill:none;stroke:#373a50;stroke-width:12.9443;stroke-linecap:round;stroke-linejoin:round;stroke-miterlimit:10;stroke-dasharray:none;stroke-opacity:1"
         transform="matrix(0.13333333,0,0,-0.13333333,0,666.66667)" />
      <path
         id="path216"
         d="M 145,1346.85 H 7355"
         style="fill:none;stroke:#373a50;stroke-width:11.8742;stroke-linecap:round;stroke-linejoin:round;stroke-miterlimit:10;stroke-dasharray:none;stroke-opacity:1"
         transform="matrix(0.13333333,0,0,-0.13333333,0,666.66667)" />
      <path
         id="path217"
         d="M 2465.79,3786.44 H 5034.21"
         style="fill:none;stroke:#373a50;stroke-width:12.8408;stroke-linecap:round;stroke-linejoin:round;stroke-miterlimit:10;stroke-dasharray:none;stroke-opacity:1"
         transform="matrix(0.13333333,0,0,-0.13333333,0,666.66667)" />
      <path
         id="path218"
         d="M 6.9025156,-21.210047 H 1.7697031 V 8.90625e-4 H 13.734547 V -3.9248906 H 6.9025156 Z M 39.571461,8.90625e-4 h 5.460937 L 37.262867,-21.057703 h -5.90625 L 23.575367,8.90625e-4 h 5.402344 L 30.30193,-3.8662969 h 7.945312 z m -7.945313,-7.769531225 2.660157,-7.8046874 2.648437,7.8046874 z m 39.629883,1.8046875 c 0,-1.3828125 -0.304687,-2.4960938 -0.9375,-3.3632813 -0.632812,-0.8671876 -1.347656,-1.5351566 -2.214843,-1.9804686 -0.878907,-0.457031 -1.980469,-0.902344 -3.328125,-1.347656 -0.9375,-0.328125 -1.652344,-0.632813 -2.167969,-0.84375 -0.503906,-0.210938 -0.902344,-0.515625 -1.230469,-0.867188 -0.328125,-0.328125 -0.503906,-0.75 -0.503906,-1.265625 0,-0.632812 0.175781,-1.078125 0.5625,-1.40625 0.363281,-0.328125 0.84375,-0.480469 1.441406,-0.480469 0.691406,0 1.265625,0.210938 1.6875,0.597657 0.386719,0.421875 0.65625,0.996093 0.75,1.6875 h 5.542969 c -0.175781,-1.957032 -0.960938,-3.515625 -2.332031,-4.628907 -1.417969,-1.101562 -3.269532,-1.675781 -5.648438,-1.675781 -1.464844,0 -2.753906,0.234375 -3.867187,0.714844 -1.136719,0.515625 -2.039063,1.207031 -2.671875,2.132812 -0.632813,0.925782 -0.960938,2.015625 -0.960938,3.269532 0,1.347656 0.304688,2.460937 0.9375,3.304687 0.597656,0.867188 1.3125,1.5 2.191406,1.921875 0.832032,0.4453126 1.910157,0.8906251 3.269532,1.3476564 0.925781,0.328125 1.640625,0.5976562 2.15625,0.8085937 0.503906,0.234375 0.960937,0.5390625 1.324218,0.9023438 0.328125,0.3515625 0.503907,0.8085937 0.503907,1.3476562 0,0.5976563 -0.175782,1.078125 -0.574219,1.4414063 -0.386719,0.3632812 -0.890625,0.5390625 -1.558594,0.5390625 -0.75,0 -1.371094,-0.2460938 -1.851562,-0.6914063 -0.515625,-0.4453125 -0.785157,-1.078125 -0.878907,-1.8867187 h -5.460937 c 0.152344,2.0625 0.996094,3.6914062 2.519531,4.8515625 1.535156,1.17187498 3.515625,1.74609373 5.882813,1.74609373 1.59375,0 2.941406,-0.26953125 4.054687,-0.84375 1.113281,-0.56250003 1.945313,-1.31250003 2.519531,-2.25000003 0.5625,-0.9257812 0.84375,-1.9804687 0.84375,-3.0820312 z M 96.565602,-21.210047 103.92498,8.90625e-4 h 6.62109 L 117.92888,-21.210047 h -5.48437 l -5.19141,15.9609376 -5.1914,-15.9609376 z m 45.539058,4.078125 v -4.078125 H 128.90935 V 8.90625e-4 h 13.19531 V -4.1123906 h -8.0625 v -4.7109375 h 7.17188 v -3.8671879 h -7.17188 v -4.441406 z m 21.84082,-4.289062 c -2.12109,0 -3.96093,0.457031 -5.54296,1.347656 -1.59375,0.9375 -2.82422,2.191406 -3.69141,3.84375 -0.86719,1.652344 -1.32422,3.515625 -1.32422,5.613281 0,2.0976564 0.45703,3.9609376 1.32422,5.6015626 0.86719,1.6523438 2.09766,2.9179688 3.69141,3.8203125 1.58203,0.92578128 3.48046,1.37109378 5.61328,1.37109378 1.76953,0 3.32812,-0.328125 4.69922,-0.984375 1.35937,-0.65624998 2.49609,-1.53515628 3.36328,-2.57812498 0.86718,-1.0546875 1.53515,-2.2265625 1.92187,-3.4570313 v -5.0624996 h -10.76953 v 3.6914059 h 6.48047 c -0.38672,1.2304687 -1.01953,2.1796875 -1.94531,2.8476562 -0.9375,0.6914063 -1.98047,1.0195313 -3.21094,1.0195313 -1.89844,0 -3.36328,-0.5390625 -4.38281,-1.6171875 -1.05469,-1.0898438 -1.5586,-2.6484375 -1.5586,-4.6523439 0,-1.863281 0.48047,-3.328125 1.46485,-4.441406 0.99609,-1.078125 2.28515,-1.617188 3.90234,-1.617188 1.05469,0 1.92188,0.210938 2.67188,0.65625 0.75,0.445313 1.28906,1.078125 1.65234,1.828125 h 5.42578 c -0.42187,-2.214843 -1.5,-3.984375 -3.21094,-5.273437 -1.71093,-1.300781 -3.90234,-1.957031 -6.57422,-1.957031 z M 200.34099,8.90625e-4 h 5.46094 L 198.0324,-21.057703 h -5.90625 L 184.3449,8.90625e-4 h 5.40234 l 1.32422,-3.867187525 h 7.94531 z m -7.94531,-7.769531225 2.66016,-7.8046874 2.64843,7.8046874 z m 39.62988,1.8046875 c 0,-1.3828125 -0.30468,-2.4960938 -0.9375,-3.3632813 -0.63281,-0.8671876 -1.34765,-1.5351566 -2.21484,-1.9804686 -0.87891,-0.457031 -1.98047,-0.902344 -3.32813,-1.347656 -0.9375,-0.328125 -1.65234,-0.632813 -2.16796,-0.84375 -0.50391,-0.210938 -0.90235,-0.515625 -1.23047,-0.867188 -0.32813,-0.328125 -0.50391,-0.75 -0.50391,-1.265625 0,-0.632812 0.17578,-1.078125 0.5625,-1.40625 0.36328,-0.328125 0.84375,-0.480469 1.44141,-0.480469 0.6914,0 1.26562,0.210938 1.6875,0.597657 0.38672,0.421875 0.65625,0.996093 0.75,1.6875 h 5.54297 c -0.17579,-1.957032 -0.96094,-3.515625 -2.33204,-4.628907 -1.41796,-1.101562 -3.26953,-1.675781 -5.64843,-1.675781 -1.46485,0 -2.75391,0.234375 -3.86719,0.714844 -1.13672,0.515625 -2.03906,1.207031 -2.67188,2.132812 -0.63281,0.925782 -0.96093,2.015625 -0.96093,3.269532 0,1.347656 0.30468,2.460937 0.9375,3.304687 0.59765,0.867188 1.3125,1.5 2.1914,1.921875 0.83203,0.4453126 1.91016,0.8906251 3.26953,1.3476564 0.92579,0.328125 1.64063,0.5976562 2.15625,0.8085937 0.50391,0.234375 0.96094,0.5390625 1.32422,0.9023438 0.32813,0.3515625 0.50391,0.8085937 0.50391,1.3476562 0,0.5976563 -0.17578,1.078125 -0.57422,1.4414063 -0.38672,0.3632812 -0.89062,0.5390625 -1.55859,0.5390625 -0.75,0 -1.3711,-0.2460938 -1.85157,-0.6914063 -0.51562,-0.4453125 -0.78515,-1.078125 -0.8789,-1.8867187 h -5.46094 c 0.15234,2.0625 0.99609,3.6914062 2.51953,4.8515625 1.53516,1.17187498 3.51563,1.74609373 5.88281,1.74609373 1.59375,0 2.94141,-0.26953125 4.05469,-0.84375 1.11328,-0.56250003 1.94531,-1.31250003 2.51953,-2.25000003 0.5625,-0.9257812 0.84375,-1.9804687 0.84375,-3.0820312 z m 0,0"
         style="fill:#1c1d29;fill-opacity:1;fill-rule:nonzero;stroke:none"
         aria-label="LAS VEGAS"
         transform="matrix(1.3333333,0,0,1.3333333,344.60133,135.116)" />
    </g>
  </g>
</svg>
